WorkSans-Light.ufo
<glyph name="percent" format="2">
  <advance width="755"/>
  <unicode hex="0025"/>
  <outline>
    <contour>
      <point x="479" y="333"/>
      <point x="438" y="251"/>
      <point x="438" y="166" type="curve" smooth="yes"/>
      <point x="438" y="81"/>
      <point x="480" y="0"/>
      <point x="578" y="0" type="curve" smooth="yes"/>
      <point x="676" y="0"/>
      <point x="716" y="81"/>
      <point x="716" y="166" type="curve" smooth="yes"/>
      <point x="716" y="251"/>
      <point x="676" y="333"/>
      <point x="578" y="333" type="curve" smooth="yes"/>
    </contour>
    <contour>
      <point x="79" y="660"/>
      <point x="39" y="577"/>
      <point x="39" y="492" type="curve" smooth="yes"/>
      <point x="39" y="407"/>
      <point x="80" y="327"/>
      <point x="178" y="327" type="curve" smooth="yes"/>
      <point x="276" y="327"/>
      <point x="316" y="407"/>
      <point x="316" y="492" type="curve" smooth="yes"/>
      <point x="316" y="577"/>
      <point x="276" y="660"/>
      <point x="178" y="660" type="curve" smooth="yes"/>
    </contour>
    <contour>
      <point x="263" y="646"/>
      <point x="300" y="572"/>
      <point x="300" y="492" type="curve" smooth="yes"/>
      <point x="300" y="412"/>
      <point x="264" y="341"/>
      <point x="178" y="341" type="curve" smooth="yes"/>
      <point x="92" y="341"/>
      <point x="55" y="412"/>
      <point x="55" y="492" type="curve" smooth="yes"/>
      <point x="55" y="572"/>
      <point x="92" y="646"/>
      <point x="178" y="646" type="curve" smooth="yes"/>
    </contour>
    <contour>
      <point x="663" y="319"/>
      <point x="700" y="246"/>
      <point x="700" y="166" type="curve" smooth="yes"/>
      <point x="700" y="86"/>
      <point x="663" y="14"/>
      <point x="578" y="14" type="curve" smooth="yes"/>
      <point x="492" y="14"/>
      <point x="454" y="86"/>
      <point x="454" y="166" type="curve" smooth="yes"/>
      <point x="454" y="246"/>
      <point x="491" y="319"/>
      <point x="578" y="319" type="curve" smooth="yes"/>
    </contour>
    <contour>
      <point x="163" y="0" type="line"/>
      <point x="610" y="660" type="line"/>
      <point x="591" y="660" type="line"/>
      <point x="144" y="0" type="line"/>
    </contour>
  </outline>
</glyph>
<glyph name="ampersand" format="2">
  <advance width="572"/>
  <unicode hex="0026"/>
  <outline>
    <contour>
      <point x="329" y="-10"/>
      <point x="394" y="30"/>
      <point x="437" y="90" type="curve"/>
      <point x="491" y="164"/>
      <point x="510" y="269"/>
      <point x="510" y="366" type="curve"/>
      <point x="495" y="366" type="line"/>
      <point x="495" y="264"/>
      <point x="474" y="168"/>
      <point x="426" y="101" type="curve"/>
      <point x="384" y="41"/>
      <point x="320" y="4"/>
      <point x="231" y="4" type="curve" smooth="yes"/>
      <point x="136" y="4"/>
      <point x="61" y="54"/>
      <point x="61" y="139" type="curve" smooth="yes"/>
      <point x="61" y="243"/>
      <point x="140" y="290"/>
      <point x="251" y="354" type="curve" smooth="yes"/>
      <point x="374" y="425"/>
      <point x="408" y="477"/>
      <point x="408" y="548" type="curve" smooth="yes"/>
      <point x="408" y="620"/>
      <point x="355" y="666"/>
      <point x="274" y="666" type="curve" smooth="yes"/>
      <point x="189" y="666"/>
      <point x="134" y="614"/>
      <point x="134" y="533" type="curve" smooth="yes"/>
      <point x="134" y="462"/>
      <point x="172" y="423"/>
      <point x="307" y="245" type="curve" smooth="yes"/>
      <point x="457" y="47"/>
      <point x="506" y="-10"/>
      <point x="578" y="-10" type="curve"/>
      <point x="579" y="3" type="line"/>
      <point x="518" y="3"/>
      <point x="472" y="50"/>
      <point x="316" y="256" type="curve" smooth="yes"/>
      <point x="171" y="448"/>
      <point x="150" y="470"/>
      <point x="150" y="533" type="curve" smooth="yes"/>
      <point x="150" y="605"/>
      <point x="199" y="652"/>
      <point x="274" y="652" type="curve" smooth="yes"/>
      <point x="346" y="652"/>
      <point x="392" y="611"/>
      <point x="392" y="548" type="curve" smooth="yes"/>
      <point x="392" y="483"/>
      <point x="360" y="435"/>
      <point x="241" y="366" type="curve" smooth="yes"/>
      <point x="126" y="299"/>
      <point x="45" y="248"/>
      <point x="45" y="139" type="curve" smooth="yes"/>
      <point x="45" y="45"/>
      <point x="127" y="-10"/>
      <point x="234" y="-10" type="curve" smooth="yes"/>
    </contour>
  </outline>
</glyph>
<glyph name="slash" format="2">
  <advance width="349"/>
  <unicode hex="002F"/>
  <outline>
    <contour>
      <point x="296" y="730" type="line"/>
      <point x="35" y="-70" type="line"/>
      <point x="52" y="-70" type="line"/>
      <point x="313" y="730" type="line"/>
    </contour>
  </outline>
</glyph>
<glyph name="at" format="2">
  <advance width="944"/>
  <unicode hex="0040"/>
  <outline>
    <contour>
      <point x="220" y="670"/>
      <point x="54" y="501"/>
      <point x="54" y="234" type="curve" smooth="yes"/>
      <point x="54" y="-34"/>
      <point x="229" y="-191"/>
      <point x="490" y="-191" type="curve" smooth="yes"/>
      <point x="578" y="-191"/>
      <point x="676" y="-160"/>
      <point x="735" y="-110" type="curve"/>
      <point x="725" y="-97" type="line"/>
      <point x="670" y="-149"/>
      <point x="572" y="-177"/>
      <point x="490" y="-177" type="curve" smooth="yes"/>
      <point x="239" y="-177"/>
      <point x="70" y="-25"/>
      <point x="70" y="234" type="curve" smooth="yes"/>
      <point x="70" y="492"/>
      <point x="230" y="656"/>
      <point x="476" y="656" type="curve" smooth="yes"/>
      <point x="768" y="656"/>
      <point x="869" y="454"/>
      <point x="869" y="245" type="curve" smooth="yes"/>
      <point x="869" y="94"/>
      <point x="830" y="4"/>
      <point x="764" y="4" type="curve" smooth="yes"/>
      <point x="705" y="4"/>
      <point x="677" y="52"/>
      <point x="677" y="132" type="curve" smooth="yes"/>
      <point x="677" y="456" type="line"/>
      <point x="663" y="456" type="line"/>
      <point x="663" y="330" type="line"/>
      <point x="638" y="420"/>
      <point x="570" y="475"/>
      <point x="471" y="475" type="curve" smooth="yes"/>
      <point x="336" y="475"/>
      <point x="249" y="381"/>
      <point x="249" y="235" type="curve" smooth="yes"/>
      <point x="249" y="86"/>
      <point x="336" y="-10"/>
      <point x="471" y="-10" type="curve" smooth="yes"/>
      <point x="570" y="-10"/>
      <point x="638" y="47"/>
      <point x="663" y="140" type="curve"/>
      <point x="663" y="37"/>
      <point x="691" y="-10"/>
      <point x="761" y="-10" type="curve" smooth="yes"/>
      <point x="839" y="-10"/>
      <point x="885" y="85"/>
      <point x="885" y="245" type="curve" smooth="yes"/>
      <point x="885" y="460"/>
      <point x="778" y="670"/>
      <point x="476" y="670" type="curve" smooth="yes"/>
    </contour>
    <contour>
      <point x="590" y="461"/>
      <point x="663" y="368"/>
      <point x="663" y="251" type="curve" smooth="yes"/>
      <point x="663" y="221" type="line" smooth="yes"/>
      <point x="663" y="99"/>
      <point x="590" y="4"/>
      <point x="471" y="4" type="curve" smooth="yes"/>
      <point x="346" y="4"/>
      <point x="265" y="95"/>
      <point x="265" y="235" type="curve" smooth="yes"/>
      <point x="265" y="372"/>
      <point x="346" y="461"/>
      <point x="471" y="461" type="curve" smooth="yes"/>
    </contour>
  </outline>
</glyph>
<glyph name="E" format="2">
  <advance width="583"/>
  <unicode hex="0045"/>
  <anchor x="317" y="0" name="bottom"/>
  <anchor x="317" y="0" name="bottomC"/>
  <anchor x="553" y="0" name="ogonek"/>
  <anchor x="317" y="660" name="top"/>
  <outline>
    <contour>
      <point x="99" y="660" type="line"/>
      <point x="99" y="0" type="line"/>
      <point x="115" y="0" type="line"/>
      <point x="115" y="660" type="line"/>
    </contour>
    <contour>
      <point x="105" y="14" type="line"/>
      <point x="105" y="0" type="line"/>
      <point x="553" y="0" type="line"/>
      <point x="553" y="14" type="line"/>
    </contour>
    <contour>
      <point x="105" y="344" type="line"/>
      <point x="105" y="330" type="line"/>
      <point x="453" y="330" type="line"/>
      <point x="453" y="344" type="line"/>
    </contour>
    <contour>
      <point x="105" y="660" type="line"/>
      <point x="105" y="646" type="line"/>
      <point x="536" y="646" type="line"/>
      <point x="536" y="660" type="line"/>
    </contour>
  </outline>
</glyph>
<glyph name="F" format="2">
  <advance width="554"/>
  <unicode hex="0046"/>
  <anchor x="107" y="0" name="bottom"/>
  <anchor x="115" y="0" name="bottomC"/>
  <anchor x="115" y="0" name="ogonek"/>
  <anchor x="314" y="660" name="top"/>
  <outline>
    <contour>
      <point x="99" y="660" type="line"/>
      <point x="99" y="0" type="line"/>
      <point x="115" y="0" type="line"/>
      <point x="115" y="660" type="line"/>
    </contour>
    <contour>
      <point x="105" y="344" type="line"/>
      <point x="105" y="330" type="line"/>
      <point x="453" y="330" type="line"/>
      <point x="453" y="344" type="line"/>
    </contour>
    <contour>
      <point x="105" y="660" type="line"/>
      <point x="105" y="646" type="line"/>
      <point x="535" y="646" type="line"/>
      <point x="535" y="660" type="line"/>
    </contour>
  </outline>
</glyph>
<glyph name="K" format="2">
  <advance width="557"/>
  <unicode hex="004B"/>
  <anchor x="319" y="0" name="bottom"/>
  <anchor x="544" y="0" name="bottomC"/>
  <anchor x="544" y="0" name="ogonek"/>
  <anchor x="319" y="660" name="top"/>
  <outline>
    <contour>
      <point x="511" y="660" type="line"/>
      <point x="106" y="248" type="line"/>
      <point x="106" y="225" type="line"/>
      <point x="268" y="389" type="line"/>
      <point x="270" y="391" type="line"/>
      <point x="534" y="660" type="line"/>
    </contour>
    <contour>
      <point x="99" y="660" type="line"/>
      <point x="99" y="0" type="line"/>
      <point x="115" y="0" type="line"/>
      <point x="115" y="660" type="line"/>
    </contour>
    <contour>
      <point x="259" y="390" type="line"/>
      <point x="523" y="0" type="line"/>
      <point x="544" y="0" type="line"/>
      <point x="270" y="404" type="line"/>
    </contour>
  </outline>
</glyph>
<glyph name="T" format="2">
  <advance width="544"/>
  <unicode hex="0054"/>
  <anchor x="272" y="0" name="bottom"/>
  <anchor x="280" y="0" name="bottomC"/>
  <anchor x="272" y="371" name="center"/>
  <anchor x="280" y="0" name="ogonek"/>
  <anchor x="272" y="660" name="top"/>
  <outline>
    <contour>
      <point x="264" y="653" type="line"/>
      <point x="264" y="0" type="line"/>
      <point x="280" y="0" type="line"/>
      <point x="280" y="653" type="line"/>
    </contour>
    <contour>
      <point x="11" y="660" type="line"/>
      <point x="11" y="646" type="line"/>
      <point x="533" y="646" type="line"/>
      <point x="533" y="660" type="line"/>
    </contour>
  </outline>
</glyph>
<glyph name="X" format="2">
  <advance width="526"/>
  <unicode hex="0058"/>
  <anchor x="263" y="0" name="bottom"/>
  <anchor x="509" y="0" name="bottomC"/>
  <anchor x="509" y="0" name="ogonek"/>
  <anchor x="263" y="660" name="top"/>
  <outline>
    <contour>
      <point x="478" y="660" type="line"/>
      <point x="259" y="350" type="line"/>
      <point x="256" y="346" type="line"/>
      <point x="12" y="0" type="line"/>
      <point x="33" y="0" type="line"/>
      <point x="267" y="331" type="line"/>
      <point x="272" y="338" type="line"/>
      <point x="500" y="660" type="line"/>
    </contour>
    <contour>
      <point x="33" y="660" type="line"/>
      <point x="256" y="337" type="line"/>
      <point x="260" y="331" type="line"/>
      <point x="489" y="0" type="line"/>
      <point x="509" y="0" type="line"/>
      <point x="272" y="343" type="line"/>
      <point x="265" y="353" type="line"/>
      <point x="53" y="660" type="line"/>
    </contour>
  </outline>
</glyph>
<glyph name="Z" format="2">
  <advance width="552"/>
  <unicode hex="005A"/>
  <anchor x="277" y="0" name="bottom"/>
  <anchor x="277" y="0" name="bottomC"/>
  <anchor x="528" y="0" name="ogonek"/>
  <anchor x="277" y="660" name="top"/>
  <outline>
    <contour>
      <point x="508" y="646" type="line"/>
      <point x="508" y="660" type="line"/>
      <point x="36" y="660" type="line"/>
      <point x="36" y="646" type="line"/>
      <point x="497" y="646" type="line"/>
      <point x="494" y="652" type="line"/>
      <point x="29" y="14" type="line"/>
      <point x="29" y="0" type="line"/>
      <point x="528" y="0" type="line"/>
      <point x="528" y="14" type="line"/>
      <point x="40" y="14" type="line"/>
      <point x="43" y="8" type="line"/>
    </contour>
  </outline>
</glyph>
<glyph name="f" format="2">
  <advance width="320"/>
  <unicode hex="0066"/>
  <anchor x="120" y="0" name="bottom"/>
  <anchor x="128" y="0" name="bottomC"/>
  <anchor x="128" y="0" name="ogonek"/>
  <anchor x="217" y="730" name="top"/>
  <outline>
    <contour>
      <point x="162" y="735"/>
      <point x="112" y="678"/>
      <point x="112" y="583" type="curve" smooth="yes"/>
      <point x="112" y="0" type="line"/>
      <point x="128" y="0" type="line"/>
      <point x="128" y="491" type="line"/>
      <point x="128" y="500" type="line"/>
      <point x="128" y="583" type="line" smooth="yes"/>
      <point x="128" y="669"/>
      <point x="172" y="721"/>
      <point x="245" y="721" type="curve" smooth="yes"/>
      <point x="277" y="721"/>
      <point x="297" y="713"/>
      <point x="315" y="692" type="curve"/>
      <point x="322" y="704" type="line"/>
      <point x="306" y="722"/>
      <point x="284" y="735"/>
      <point x="245" y="735" type="curve" smooth="yes"/>
    </contour>
    <contour>
      <point x="12" y="500" type="line"/>
      <point x="12" y="486" type="line"/>
      <point x="314" y="486" type="line"/>
      <point x="314" y="500" type="line"/>
    </contour>
  </outline>
</glyph>
<glyph name="i" format="2">
  <advance width="186"/>
  <unicode hex="0069"/>
  <anchor x="93" y="0" name="bottom"/>
  <anchor x="101" y="0" name="bottomC"/>
  <anchor x="101" y="0" name="ogonek"/>
  <anchor x="93" y="632" name="top"/>
  <outline>
    <contour>
      <point x="106" y="598"/>
      <point x="115" y="607"/>
      <point x="115" y="620" type="curve" smooth="yes"/>
      <point x="115" y="633"/>
      <point x="106" y="642"/>
      <point x="93" y="642" type="curve" smooth="yes"/>
      <point x="80" y="642"/>
      <point x="71" y="633"/>
      <point x="71" y="620" type="curve" smooth="yes"/>
      <point x="71" y="607"/>
      <point x="80" y="598"/>
      <point x="93" y="598" type="curve" smooth="yes"/>
    </contour>
    <component base="idotless"/>
  </outline>
</glyph>
<glyph name="n" format="2">
  <advance width="574"/>
  <unicode hex="006E"/>
  <anchor x="323" y="0" name="bottom"/>
  <anchor x="495" y="0" name="bottomC"/>
  <anchor x="495" y="0" name="ogonek"/>
  <anchor x="293" y="500" name="top"/>
  <outline>
    <contour>
      <point x="184" y="510"/>
      <point x="94" y="423"/>
      <point x="94" y="317" type="curve"/>
      <point x="101" y="301" type="line"/>
      <point x="101" y="405"/>
      <point x="189" y="496"/>
      <point x="306" y="496" type="curve" smooth="yes"/>
      <point x="412" y="496"/>
      <point x="479" y="434"/>
      <point x="479" y="327" type="curve" smooth="yes"/>
      <point x="479" y="0" type="line"/>
      <point x="495" y="0" type="line"/>
      <point x="495" y="329" type="line" smooth="yes"/>
      <point x="495" y="444"/>
      <point x="424" y="510"/>
      <point x="309" y="510" type="curve" smooth="yes"/>
    </contour>
    <contour>
      <point x="85" y="500" type="line"/>
      <point x="85" y="301" type="line"/>
      <point x="85" y="0" type="line"/>
      <point x="101" y="0" type="line"/>
      <point x="101" y="292" type="line"/>
      <point x="101" y="301" type="line"/>
      <point x="101" y="500" type="line"/>
    </contour>
  </outline>
</glyph>
<glyph name="t" format="2">
  <advance width="329"/>
  <unicode hex="0074"/>
  <anchor x="220" y="0" name="bottom"/>
  <anchor x="199" y="0" name="bottomC"/>
  <anchor x="119" y="281" name="center"/>
  <anchor x="302" y="9" name="ogonek"/>
  <anchor x="119" y="730" name="top"/>
  <anchor x="247" y="767" name="topright"/>
  <outline>
    <contour>
      <point x="111" y="630" type="line"/>
      <point x="111" y="126" type="line" smooth="yes"/>
      <point x="111" y="37"/>
      <point x="150" y="-10"/>
      <point x="231" y="-10" type="curve" smooth="yes"/>
      <point x="271" y="-10"/>
      <point x="307" y="7"/>
      <point x="327" y="28" type="curve"/>
      <point x="319" y="41" type="line"/>
      <point x="295" y="15"/>
      <point x="266" y="4"/>
      <point x="231" y="4" type="curve" smooth="yes"/>
      <point x="159" y="4"/>
      <point x="127" y="46"/>
      <point x="127" y="126" type="curve" smooth="yes"/>
      <point x="127" y="635" type="line"/>
    </contour>
    <contour>
      <point x="11" y="500" type="line"/>
      <point x="11" y="486" type="line"/>
      <point x="320" y="486" type="line"/>
      <point x="320" y="500" type="line"/>
    </contour>
  </outline>
</glyph>
<glyph name="u" format="2">
  <advance width="564"/>
  <unicode hex="0075"/>
  <anchor x="280" y="0" name="bottom"/>
  <anchor x="479" y="0" name="bottomC"/>
  <anchor x="479" y="0" name="ogonek"/>
  <anchor x="280" y="500" name="top"/>
  <outline>
    <contour>
      <point x="79" y="500" type="line"/>
      <point x="79" y="167" type="line" smooth="yes"/>
      <point x="79" y="54"/>
      <point x="143" y="-10"/>
      <point x="254" y="-10" type="curve" smooth="yes"/>
      <point x="381" y="-10"/>
      <point x="470" y="77"/>
      <point x="470" y="183" type="curve"/>
      <point x="463" y="196" type="line"/>
      <point x="463" y="122"/>
      <point x="401" y="4"/>
      <point x="257" y="4" type="curve" smooth="yes"/>
      <point x="154" y="4"/>
      <point x="95" y="64"/>
      <point x="95" y="169" type="curve" smooth="yes"/>
      <point x="95" y="500" type="line"/>
    </contour>
    <contour>
      <point x="463" y="500" type="line"/>
      <point x="463" y="199" type="line"/>
      <point x="463" y="165" type="line"/>
      <point x="463" y="0" type="line"/>
      <point x="479" y="0" type="line"/>
      <point x="479" y="500" type="line"/>
    </contour>
  </outline>
</glyph>
<glyph name="y" format="2">
  <advance width="481"/>
  <unicode hex="0079"/>
  <anchor x="123" y="-210" name="bottom"/>
  <anchor x="57" y="-210" name="bottomC"/>
  <anchor x="109" y="-210" name="ogonek"/>
  <anchor x="244" y="500" name="top"/>
  <outline>
    <contour>
      <point x="441" y="500" type="line"/>
      <point x="260" y="61" type="line"/>
      <point x="243" y="18" type="line"/>
      <point x="225" y="60" type="line"/>
      <point x="40" y="500" type="line"/>
      <point x="22" y="500" type="line"/>
      <point x="180" y="128" type="line"/>
      <point x="235" y="-1" type="line"/>
      <point x="195" y="-98" type="line" smooth="yes"/>
      <point x="162" y="-178"/>
      <point x="127" y="-201"/>
      <point x="75" y="-201" type="curve" smooth="yes"/>
      <point x="47" y="-201"/>
      <point x="20" y="-193"/>
      <point x="5" y="-170" type="curve"/>
      <point x="-4" y="-183" type="line"/>
      <point x="10" y="-204"/>
      <point x="39" y="-215"/>
      <point x="74" y="-215" type="curve" smooth="yes"/>
      <point x="136" y="-215"/>
      <point x="174" y="-188"/>
      <point x="210" y="-101" type="curve" smooth="yes"/>
      <point x="459" y="500" type="line"/>
    </contour>
  </outline>
</glyph>
<glyph name="cent" format="2">
  <advance width="537"/>
  <unicode hex="00A2"/>
  <outline>
    <contour>
      <point x="141" y="510"/>
      <point x="56" y="412"/>
      <point x="56" y="250" type="curve" smooth="yes"/>
      <point x="56" y="88"/>
      <point x="138" y="-10"/>
      <point x="283" y="-10" type="curve" smooth="yes"/>
      <point x="384" y="-10"/>
      <point x="470" y="47"/>
      <point x="487" y="137" type="curve"/>
      <point x="473" y="142" type="line"/>
      <point x="459" y="57"/>
      <point x="376" y="4"/>
      <point x="283" y="4" type="curve" smooth="yes"/>
      <point x="148" y="4"/>
      <point x="72" y="97"/>
      <point x="72" y="250" type="curve" smooth="yes"/>
      <point x="72" y="403"/>
      <point x="151" y="496"/>
      <point x="286" y="496" type="curve" smooth="yes"/>
      <point x="380" y="496"/>
      <point x="447" y="449"/>
      <point x="469" y="366" type="curve"/>
      <point x="483" y="373" type="line"/>
      <point x="459" y="461"/>
      <point x="385" y="510"/>
      <point x="286" y="510" type="curve" smooth="yes"/>
    </contour>
    <contour>
      <point x="270" y="600" type="line"/>
      <point x="270" y="-100" type="line"/>
      <point x="284" y="-100" type="line"/>
      <point x="284" y="600" type="line"/>
    </contour>
  </outline>
</glyph>
<glyph name="sterling" format="2">
  <advance width="573"/>
  <unicode hex="00A3"/>
  <outline>
    <contour>
      <point x="94" y="317" type="line"/>
      <point x="94" y="303" type="line"/>
      <point x="447" y="303" type="line"/>
      <point x="447" y="317" type="line"/>
    </contour>
    <component base="sterling.part" xOffset="6"/>
  </outline>
</glyph>
<glyph name="section" format="2">
  <advance width="536"/>
  <unicode hex="00A7"/>
  <outline>
    <contour>
      <point x="161" y="670"/>
      <point x="99" y="606"/>
      <point x="99" y="531" type="curve" smooth="yes"/>
      <point x="99" y="449"/>
      <point x="151" y="408"/>
      <point x="305" y="385" type="curve" smooth="yes"/>
      <point x="443" y="364"/>
      <point x="487" y="331"/>
      <point x="487" y="266" type="curve" smooth="yes"/>
      <point x="487" y="193"/>
      <point x="408" y="158"/>
      <point x="338" y="148" type="curve"/>
      <point x="345" y="139" type="line"/>
      <point x="431" y="149"/>
      <point x="503" y="192"/>
      <point x="503" y="266" type="curve" smooth="yes"/>
      <point x="503" y="341"/>
      <point x="454" y="378"/>
      <point x="308" y="400" type="curve" smooth="yes"/>
      <point x="163" y="422"/>
      <point x="115" y="459"/>
      <point x="115" y="532" type="curve" smooth="yes"/>
      <point x="115" y="603"/>
      <point x="174" y="656"/>
      <point x="280" y="656" type="curve" smooth="yes"/>
      <point x="363" y="656"/>
      <point x="423" y="633"/>
      <point x="442" y="576" type="curve"/>
      <point x="455" y="585" type="line"/>
      <point x="432" y="644"/>
      <point x="368" y="670"/>
      <point x="280" y="670" type="curve" smooth="yes"/>
    </contour>
    <contour>
      <point x="391" y="-110"/>
      <point x="453" y="-46"/>
      <point x="453" y="29" type="curve" smooth="yes"/>
      <point x="453" y="111"/>
      <point x="401" y="150"/>
      <point x="247" y="175" type="curve" smooth="yes"/>
      <point x="109" y="197"/>
      <point x="65" y="229"/>
      <point x="65" y="294" type="curve" smooth="yes"/>
      <point x="65" y="367"/>
      <point x="144" y="402"/>
      <point x="214" y="412" type="curve"/>
      <point x="207" y="421" type="line"/>
      <point x="121" y="411"/>
      <point x="49" y="368"/>
      <point x="49" y="294" type="curve" smooth="yes"/>
      <point x="49" y="219"/>
      <point x="98" y="182"/>
      <point x="244" y="160" type="curve" smooth="yes"/>
      <point x="389" y="138"/>
      <point x="437" y="101"/>
      <point x="437" y="28" type="curve" smooth="yes"/>
      <point x="437" y="-43"/>
      <point x="378" y="-96"/>
      <point x="272" y="-96" type="curve" smooth="yes"/>
      <point x="189" y="-96"/>
      <point x="129" y="-73"/>
      <point x="110" y="-16" type="curve"/>
      <point x="97" y="-25" type="line"/>
      <point x="120" y="-84"/>
      <point x="184" y="-110"/>
      <point x="272" y="-110" type="curve" smooth="yes"/>
    </contour>
  </outline>
</glyph>
<glyph name="ordfeminine" format="2">
  <advance width="352"/>
  <unicode hex="00AA"/>
  <outline>
    <contour>
      <point x="53" y="579" type="line"/>
      <point x="71" y="628"/>
      <point x="107" y="651"/>
      <point x="169" y="651" type="curve" smooth="yes"/>
      <point x="236" y="651"/>
      <point x="273" y="615"/>
      <point x="273" y="556" type="curve" smooth="yes"/>
      <point x="273" y="408" type="line"/>
      <point x="273" y="385" type="line"/>
      <point x="273" y="337"/>
      <point x="297" y="326"/>
      <point x="320" y="326" type="curve" smooth="yes"/>
      <point x="332" y="326"/>
      <point x="340" y="328"/>
      <point x="347" y="332" type="curve"/>
      <point x="347" y="346" type="line"/>
      <point x="341" y="342"/>
      <point x="333" y="340"/>
      <point x="321" y="340" type="curve" smooth="yes"/>
      <point x="299" y="340"/>
      <point x="289" y="354"/>
      <point x="289" y="383" type="curve" smooth="yes"/>
      <point x="289" y="558" type="line" smooth="yes"/>
      <point x="289" y="628"/>
      <point x="242" y="665"/>
      <point x="169" y="665" type="curve" smooth="yes"/>
      <point x="102" y="665"/>
      <point x="57" y="636"/>
      <point x="40" y="584" type="curve"/>
    </contour>
    <contour>
      <point x="335" y="223" type="line"/>
      <point x="335" y="237" type="line"/>
      <point x="38" y="237" type="line"/>
      <point x="38" y="223" type="line"/>
    </contour>
    <contour>
      <point x="203" y="326"/>
      <point x="278" y="357"/>
      <point x="278" y="422" type="curve"/>
      <point x="273" y="435" type="line"/>
      <point x="273" y="371"/>
      <point x="195" y="340"/>
      <point x="141" y="340" type="curve" smooth="yes"/>
      <point x="83" y="340"/>
      <point x="49" y="365"/>
      <point x="49" y="406" type="curve" smooth="yes"/>
      <point x="49" y="448"/>
      <point x="82" y="476"/>
      <point x="166" y="491" type="curve" smooth="yes"/>
      <point x="282" y="512" type="line"/>
      <point x="280" y="525" type="line"/>
      <point x="159" y="504" type="line" smooth="yes"/>
      <point x="73" y="489"/>
      <point x="34" y="458"/>
      <point x="34" y="407" type="curve" smooth="yes"/>
      <point x="34" y="355"/>
      <point x="76" y="326"/>
      <point x="141" y="326" type="curve" smooth="yes"/>
    </contour>
  </outline>
</glyph>
<glyph name="logicalnot" format="2">
  <advance width="604"/>
  <unicode hex="00AC"/>
  <outline>
    <contour>
      <point x="511" y="317" type="line"/>
      <point x="511" y="176" type="line"/>
      <point x="527" y="176" type="line"/>
      <point x="527" y="317" type="line"/>
    </contour>
    <contour>
      <point x="77" y="323" type="line"/>
      <point x="77" y="309" type="line"/>
      <point x="527" y="309" type="line"/>
      <point x="527" y="323" type="line"/>
    </contour>
  </outline>
</glyph>
<glyph name="registered" format="2">
  <advance width="796"/>
  <unicode hex="00AE"/>
  <outline>
    <contour>
      <point x="193" y="670"/>
      <point x="56" y="534"/>
      <point x="56" y="330" type="curve" smooth="yes"/>
      <point x="56" y="126"/>
      <point x="193" y="-10"/>
      <point x="398" y="-10" type="curve" smooth="yes"/>
      <point x="603" y="-10"/>
      <point x="740" y="126"/>
      <point x="740" y="330" type="curve" smooth="yes"/>
      <point x="740" y="534"/>
      <point x="603" y="670"/>
      <point x="398" y="670" type="curve" smooth="yes"/>
    </contour>
    <contour>
      <point x="276" y="513" type="line"/>
      <point x="276" y="143" type="line"/>
      <point x="292" y="143" type="line"/>
      <point x="292" y="513" type="line"/>
    </contour>
    <contour>
      <point x="427" y="316" type="line"/>
      <point x="538" y="143" type="line"/>
      <point x="556" y="143" type="line"/>
      <point x="441" y="322" type="line"/>
    </contour>
    <contour>
      <point x="593" y="656"/>
      <point x="724" y="525"/>
      <point x="724" y="330" type="curve" smooth="yes"/>
      <point x="724" y="135"/>
      <point x="593" y="4"/>
      <point x="398" y="4" type="curve" smooth="yes"/>
      <point x="203" y="4"/>
      <point x="72" y="135"/>
      <point x="72" y="330" type="curve" smooth="yes"/>
      <point x="72" y="525"/>
      <point x="203" y="656"/>
      <point x="398" y="656" type="curve" smooth="yes"/>
    </contour>
    <contour>
      <point x="282" y="513" type="line"/>
      <point x="282" y="499" type="line"/>
      <point x="431" y="499" type="line" smooth="yes"/>
      <point x="500" y="499"/>
      <point x="535" y="470"/>
      <point x="535" y="412" type="curve" smooth="yes"/>
      <point x="535" y="355"/>
      <point x="500" y="325"/>
      <point x="431" y="324" type="curve" smooth="yes"/>
      <point x="282" y="324" type="line"/>
      <point x="282" y="311" type="line"/>
      <point x="431" y="311" type="line" smooth="yes"/>
      <point x="510" y="312"/>
      <point x="550" y="346"/>
      <point x="550" y="412" type="curve" smooth="yes"/>
      <point x="550" y="479"/>
      <point x="510" y="513"/>
      <point x="431" y="513" type="curve" smooth="yes"/>
    </contour>
  </outline>
</glyph>
<glyph name="threesuperior" format="2">
  <advance width="306"/>
  <unicode hex="00B3"/>
  <anchor x="141" y="530" name="_indexring"/>
  <outline>
    <contour>
      <point x="84" y="735"/>
      <point x="40" y="703"/>
      <point x="26" y="655" type="curve"/>
      <point x="40" y="648" type="line"/>
      <point x="50" y="692"/>
      <point x="87" y="721"/>
      <point x="143" y="721" type="curve" smooth="yes"/>
      <point x="205" y="721"/>
      <point x="241" y="686"/>
      <point x="241" y="630" type="curve" smooth="yes"/>
      <point x="241" y="582"/>
      <point x="209" y="540"/>
      <point x="149" y="540" type="curve" smooth="yes"/>
      <point x="124" y="540" type="line"/>
      <point x="124" y="526" type="line"/>
      <point x="149" y="526" type="line" smooth="yes"/>
      <point x="216" y="526"/>
      <point x="251" y="492"/>
      <point x="251" y="437" type="curve" smooth="yes"/>
      <point x="251" y="376"/>
      <point x="206" y="341"/>
      <point x="144" y="341" type="curve" smooth="yes"/>
      <point x="75" y="341"/>
      <point x="39" y="375"/>
      <point x="27" y="426" type="curve"/>
      <point x="14" y="418" type="line"/>
      <point x="30" y="362"/>
      <point x="73" y="327"/>
      <point x="142" y="327" type="curve" smooth="yes"/>
      <point x="213" y="327"/>
      <point x="267" y="369"/>
      <point x="267" y="438" type="curve" smooth="yes"/>
      <point x="267" y="486"/>
      <point x="235" y="526"/>
      <point x="184" y="532" type="curve"/>
      <point x="184" y="534" type="line"/>
      <point x="232" y="548"/>
      <point x="257" y="582"/>
      <point x="257" y="630" type="curve" smooth="yes"/>
      <point x="257" y="690"/>
      <point x="215" y="735"/>
      <point x="142" y="735" type="curve" smooth="yes"/>
    </contour>
  </outline>
</glyph>
<glyph name="Thorn" format="2">
  <advance width="567"/>
  <unicode hex="00DE"/>
  <anchor x="107" y="0" name="bottom"/>
  <anchor x="115" y="0" name="bottomC"/>
  <anchor x="115" y="0" name="ogonek"/>
  <anchor x="107" y="660" name="top"/>
  <outline>
    <contour>
      <point x="108" y="525" type="line"/>
      <point x="108" y="511" type="line"/>
      <point x="303" y="511" type="line" smooth="yes"/>
      <point x="441" y="511"/>
      <point x="511" y="453"/>
      <point x="511" y="340" type="curve" smooth="yes"/>
      <point x="511" y="227"/>
      <point x="441" y="169"/>
      <point x="303" y="169" type="curve" smooth="yes"/>
      <point x="108" y="169" type="line"/>
      <point x="108" y="155" type="line"/>
      <point x="294" y="155" type="line" smooth="yes"/>
      <point x="448" y="155"/>
      <point x="527" y="218"/>
      <point x="527" y="340" type="curve" smooth="yes"/>
      <point x="527" y="462"/>
      <point x="448" y="525"/>
      <point x="294" y="525" type="curve" smooth="yes"/>
    </contour>
    <contour>
      <point x="99" y="660" type="line"/>
      <point x="99" y="0" type="line"/>
      <point x="115" y="0" type="line"/>
      <point x="115" y="660" type="line"/>
    </contour>
  </outline>
</glyph>
<glyph name="eth" format="2">
  <advance width="577"/>
  <unicode hex="00F0"/>
  <anchor x="281" y="0" name="bottom"/>
  <anchor x="281" y="0" name="bottomC"/>
  <anchor x="394" y="21" name="ogonek"/>
  <anchor x="281" y="730" name="top"/>
  <outline>
    <contour>
      <point x="239" y="730" type="line"/>
      <point x="381" y="676"/>
      <point x="497" y="535"/>
      <point x="497" y="290" type="curve"/>
      <point x="498" y="257" type="line"/>
      <point x="492" y="95"/>
      <point x="416" y="4"/>
      <point x="287" y="4" type="curve" smooth="yes"/>
      <point x="150" y="4"/>
      <point x="67" y="95"/>
      <point x="67" y="237" type="curve" smooth="yes"/>
      <point x="67" y="379"/>
      <point x="151" y="471"/>
      <point x="279" y="471" type="curve" smooth="yes"/>
      <point x="424" y="471"/>
      <point x="498" y="366"/>
      <point x="498" y="257" type="curve"/>
      <point x="504" y="281" type="line"/>
      <point x="497" y="405"/>
      <point x="413" y="485"/>
      <point x="279" y="485" type="curve" smooth="yes"/>
      <point x="142" y="485"/>
      <point x="51" y="388"/>
      <point x="51" y="237" type="curve" smooth="yes"/>
      <point x="51" y="88"/>
      <point x="141" y="-10"/>
      <point x="287" y="-10" type="curve" smooth="yes"/>
      <point x="425" y="-10"/>
      <point x="511" y="85"/>
      <point x="511" y="283" type="curve" smooth="yes"/>
      <point x="511" y="550"/>
      <point x="398" y="672"/>
      <point x="270" y="730" type="curve"/>
    </contour>
    <contour>
      <point x="224" y="587" type="line"/>
      <point x="228" y="574" type="line"/>
      <point x="414" y="613" type="line"/>
      <point x="406" y="625" type="line"/>
    </contour>
    <contour>
      <point x="406" y="625" type="line"/>
      <point x="414" y="613" type="line"/>
      <point x="530" y="638" type="line"/>
      <point x="526" y="651" type="line"/>
    </contour>
  </outline>
</glyph>
<glyph name="uni0123" format="2">
  <advance width="496"/>
  <unicode hex="0123"/>
  <anchor x="253" y="-210" name="bottomC"/>
  <anchor x="253" y="500" name="top"/>
  <anchor x="399" y="-189" name="ogonek"/>
  <anchor x="253" y="-210" name="bottom"/>
  <outline>
    <contour>
      <point x="314" y="778" type="line"/>
      <point x="254" y="587" type="line"/>
      <point x="272" y="587" type="line"/>
      <point x="327" y="778" type="line"/>
    </contour>
    <component base="g"/>
  </outline>
</glyph>
<glyph name="OE" format="2">
  <advance width="1050"/>
  <unicode hex="0152"/>
  <anchor x="571" y="0" name="bottom"/>
  <anchor x="619" y="0" name="bottomC"/>
  <anchor x="1020" y="0" name="ogonek"/>
  <anchor x="571" y="660" name="top"/>
  <outline>
    <contour>
      <point x="167" y="670"/>
      <point x="56" y="539"/>
      <point x="56" y="330" type="curve" smooth="yes"/>
      <point x="56" y="121"/>
      <point x="167" y="-10"/>
      <point x="337" y="-10" type="curve" smooth="yes"/>
      <point x="525" y="-10"/>
      <point x="606" y="101"/>
      <point x="606" y="330" type="curve" smooth="yes"/>
      <point x="606" y="559"/>
      <point x="525" y="670"/>
      <point x="337" y="670" type="curve" smooth="yes"/>
    </contour>
    <contour>
      <point x="517" y="656"/>
      <point x="592" y="550"/>
      <point x="592" y="330" type="curve" smooth="yes"/>
      <point x="592" y="110"/>
      <point x="517" y="4"/>
      <point x="337" y="4" type="curve" smooth="yes"/>
      <point x="177" y="4"/>
      <point x="72" y="130"/>
      <point x="72" y="330" type="curve" smooth="yes"/>
      <point x="72" y="530"/>
      <point x="177" y="656"/>
      <point x="337" y="656" type="curve" smooth="yes"/>
    </contour>
    <contour>
      <point x="606" y="14" type="line"/>
      <point x="598" y="0" type="line"/>
      <point x="1020" y="0" type="line"/>
      <point x="1020" y="14" type="line"/>
    </contour>
    <contour>
      <point x="592" y="660" type="line"/>
      <point x="592" y="0" type="line"/>
      <point x="608" y="0" type="line"/>
      <point x="608" y="660" type="line"/>
    </contour>
    <contour>
      <point x="598" y="344" type="line"/>
      <point x="598" y="330" type="line"/>
      <point x="931" y="330" type="line"/>
      <point x="931" y="344" type="line"/>
    </contour>
    <contour>
      <point x="598" y="660" type="line"/>
      <point x="598" y="646" type="line"/>
      <point x="1003" y="646" type="line"/>
      <point x="1003" y="660" type="line"/>
    </contour>
  </outline>
</glyph>
<glyph name="jdotless" format="2">
  <advance width="186"/>
  <unicode hex="0237"/>
  <anchor x="-1" y="-210" name="bottom"/>
  <anchor x="-1" y="-210" name="bottomC"/>
  <anchor x="23" y="-204" name="ogonek"/>
  <anchor x="93" y="500" name="top"/>
  <outline>
    <contour>
      <point x="85" y="500" type="line"/>
      <point x="85" y="-64" type="line" smooth="yes"/>
      <point x="85" y="-147"/>
      <point x="39" y="-201"/>
      <point x="-31" y="-201" type="curve" smooth="yes"/>
      <point x="-55" y="-201"/>
      <point x="-81" y="-194"/>
      <point x="-97" y="-179" type="curve"/>
      <point x="-102" y="-193" type="line"/>
      <point x="-86" y="-207"/>
      <point x="-59" y="-215"/>
      <point x="-31" y="-215" type="curve" smooth="yes"/>
      <point x="49" y="-215"/>
      <point x="101" y="-156"/>
      <point x="101" y="-64" type="curve" smooth="yes"/>
      <point x="101" y="500" type="line"/>
    </contour>
  </outline>
</glyph>
<glyph name="uni02C9" format="2">
  <advance width="550"/>
  <unicode hex="02C9"/>
  <outline>
    <contour>
      <point x="131" y="619" type="line"/>
      <point x="131" y="605" type="line"/>
      <point x="419" y="605" type="line"/>
      <point x="419" y="619" type="line"/>
    </contour>
  </outline>
</glyph>
<glyph name="breve" format="2">
  <advance width="550"/>
  <unicode hex="02D8"/>
  <anchor x="255" y="500" name="_top"/>
  <outline>
    <contour>
      <point x="362" y="702" type="line"/>
      <point x="362" y="637"/>
      <point x="321" y="595"/>
      <point x="255" y="595" type="curve" smooth="yes"/>
      <point x="189" y="595"/>
      <point x="148" y="637"/>
      <point x="148" y="702" type="curve"/>
      <point x="134" y="702" type="line"/>
      <point x="134" y="626"/>
      <point x="179" y="581"/>
      <point x="255" y="581" type="curve" smooth="yes"/>
      <point x="331" y="581"/>
      <point x="376" y="626"/>
      <point x="376" y="702" type="curve"/>
    </contour>
  </outline>
</glyph>
<glyph name="endash" format="2">
  <advance width="609"/>
  <unicode hex="2013"/>
  <outline>
    <contour>
      <point x="68" y="278" type="line"/>
      <point x="68" y="262" type="line"/>
      <point x="541" y="262" type="line"/>
      <point x="541" y="278" type="line"/>
    </contour>
  </outline>
</glyph>
<glyph name="guilsinglleft" format="2">
  <advance width="261"/>
  <unicode hex="2039"/>
  <outline>
    <contour>
      <point x="190" y="461" type="line"/>
      <point x="46" y="265" type="line"/>
      <point x="190" y="69" type="line"/>
      <point x="211" y="69" type="line"/>
      <point x="66" y="265" type="line"/>
      <point x="211" y="461" type="line"/>
    </contour>
  </outline>
</glyph>
<glyph name="foursuperior" format="2">
  <advance width="329"/>
  <unicode hex="2074"/>
  <anchor x="183" y="527" name="_indexring"/>
  <outline>
    <contour>
      <point x="229" y="467" type="line"/>
      <point x="229" y="730" type="line"/>
      <point x="207" y="730" type="line"/>
      <point x="15" y="467" type="line"/>
      <point x="15" y="453" type="line"/>
      <point x="213" y="453" type="line"/>
      <point x="213" y="333" type="line"/>
      <point x="229" y="333" type="line"/>
      <point x="229" y="453" type="line"/>
      <point x="310" y="453" type="line"/>
      <point x="310" y="467" type="line"/>
    </contour>
    <contour>
      <point x="180" y="669" type="line" smooth="yes"/>
      <point x="191" y="684"/>
      <point x="201" y="699"/>
      <point x="212" y="714" type="curve"/>
      <point x="213" y="714" type="line"/>
      <point x="213" y="700"/>
      <point x="213" y="686"/>
      <point x="213" y="672" type="curve" smooth="yes"/>
      <point x="213" y="467" type="line"/>
      <point x="32" y="467" type="line"/>
    </contour>
  </outline>
</glyph>
<glyph name="eightsuperior" format="2">
  <advance width="345"/>
  <unicode hex="2078"/>
  <anchor x="173" y="530" name="_indexring"/>
  <outline>
    <contour>
      <point x="100" y="735"/>
      <point x="54" y="696"/>
      <point x="54" y="636" type="curve" smooth="yes"/>
      <point x="54" y="589"/>
      <point x="83" y="554"/>
      <point x="130" y="542" type="curve"/>
      <point x="130" y="541" type="line"/>
      <point x="74" y="529"/>
      <point x="36" y="489"/>
      <point x="36" y="436" type="curve" smooth="yes"/>
      <point x="36" y="371"/>
      <point x="92" y="327"/>
      <point x="173" y="327" type="curve" smooth="yes"/>
      <point x="253" y="327"/>
      <point x="309" y="371"/>
      <point x="309" y="436" type="curve" smooth="yes"/>
      <point x="309" y="489"/>
      <point x="272" y="528"/>
      <point x="216" y="541" type="curve"/>
      <point x="216" y="542" type="line"/>
      <point x="262" y="554"/>
      <point x="291" y="589"/>
      <point x="291" y="636" type="curve" smooth="yes"/>
      <point x="291" y="696"/>
      <point x="244" y="735"/>
      <point x="173" y="735" type="curve" smooth="yes"/>
    </contour>
    <contour>
      <point x="234" y="721"/>
      <point x="275" y="686"/>
      <point x="275" y="635" type="curve" smooth="yes"/>
      <point x="275" y="584"/>
      <point x="234" y="548"/>
      <point x="173" y="548" type="curve" smooth="yes"/>
      <point x="111" y="548"/>
      <point x="70" y="584"/>
      <point x="70" y="635" type="curve" smooth="yes"/>
      <point x="70" y="686"/>
      <point x="111" y="721"/>
      <point x="173" y="721" type="curve" smooth="yes"/>
    </contour>
    <contour>
      <point x="101" y="341"/>
      <point x="52" y="381"/>
      <point x="52" y="437" type="curve" smooth="yes"/>
      <point x="52" y="494"/>
      <point x="102" y="534"/>
      <point x="173" y="534" type="curve" smooth="yes"/>
      <point x="244" y="534"/>
      <point x="293" y="494"/>
      <point x="293" y="437" type="curve" smooth="yes"/>
      <point x="293" y="381"/>
      <point x="244" y="341"/>
      <point x="173" y="341" type="curve" smooth="yes"/>
    </contour>
  </outline>
</glyph>
<glyph name="ninesuperior" format="2">
  <advance width="350"/>
  <unicode hex="2079"/>
  <anchor x="169" y="530" name="_indexring"/>
  <outline>
    <contour>
      <point x="89" y="735"/>
      <point x="38" y="688"/>
      <point x="38" y="613" type="curve" smooth="yes"/>
      <point x="38" y="538"/>
      <point x="87" y="488"/>
      <point x="167" y="488" type="curve" smooth="yes"/>
      <point x="224" y="488"/>
      <point x="291" y="532"/>
      <point x="289" y="607" type="curve"/>
      <point x="290" y="607" type="line"/>
      <point x="294" y="584"/>
      <point x="297" y="559"/>
      <point x="297" y="534" type="curve" smooth="yes"/>
      <point x="297" y="439"/>
      <point x="262" y="341"/>
      <point x="168" y="341" type="curve" smooth="yes"/>
      <point x="101" y="341"/>
      <point x="64" y="373"/>
      <point x="54" y="420" type="curve"/>
      <point x="40" y="413" type="line"/>
      <point x="54" y="361"/>
      <point x="100" y="327"/>
      <point x="168" y="327" type="curve" smooth="yes"/>
      <point x="255" y="327"/>
      <point x="311" y="400"/>
      <point x="311" y="531" type="curve" smooth="yes"/>
      <point x="311" y="657"/>
      <point x="261" y="735"/>
      <point x="167" y="735" type="curve" smooth="yes"/>
    </contour>
    <contour>
      <point x="233" y="721"/>
      <point x="279" y="673"/>
      <point x="279" y="611" type="curve" smooth="yes"/>
      <point x="279" y="557"/>
      <point x="232" y="502"/>
      <point x="166" y="502" type="curve" smooth="yes"/>
      <point x="98" y="502"/>
      <point x="54" y="548"/>
      <point x="54" y="612" type="curve" smooth="yes"/>
      <point x="54" y="677"/>
      <point x="98" y="721"/>
      <point x="168" y="721" type="curve" smooth="yes"/>
    </contour>
  </outline>
</glyph>
<glyph name="minussuperior" format="2">
  <advance width="330"/>
  <unicode hex="207B"/>
  <outline>
    <contour>
      <point x="290" y="526" type="line"/>
      <point x="290" y="540" type="line"/>
      <point x="40" y="540" type="line"/>
      <point x="40" y="526" type="line"/>
    </contour>
  </outline>
</glyph>
<glyph name="equalsuperior" format="2">
  <advance width="390"/>
  <unicode hex="207C"/>
  <outline>
    <contour>
      <point x="327" y="471" type="line"/>
      <point x="327" y="485" type="line"/>
      <point x="63" y="485" type="line"/>
      <point x="63" y="471" type="line"/>
    </contour>
    <contour>
      <point x="327" y="581" type="line"/>
      <point x="327" y="595" type="line"/>
      <point x="63" y="595" type="line"/>
      <point x="63" y="581" type="line"/>
    </contour>
  </outline>
</glyph>
<glyph name="estimated" format="2">
  <advance width="781"/>
  <unicode hex="212E"/>
  <outline>
    <contour>
      <point x="190" y="670"/>
      <point x="56" y="536"/>
      <point x="56" y="330" type="curve" smooth="yes"/>
      <point x="56" y="124"/>
      <point x="190" y="-10"/>
      <point x="416" y="-10" type="curve" smooth="yes"/>
      <point x="542" y="-10"/>
      <point x="643" y="35"/>
      <point x="703" y="131" type="curve"/>
      <point x="703" y="168" type="line"/>
      <point x="642" y="72"/>
      <point x="535" y="15"/>
      <point x="417" y="15" type="curve" smooth="yes"/>
      <point x="304" y="15"/>
      <point x="216" y="50"/>
      <point x="159" y="113" type="curve"/>
      <point x="159" y="319" type="line"/>
      <point x="735" y="319" type="line"/>
      <point x="736" y="542"/>
      <point x="608" y="670"/>
      <point x="396" y="670" type="curve" smooth="yes"/>
    </contour>
    <contour>
      <point x="499" y="645"/>
      <point x="580" y="608"/>
      <point x="633" y="541" type="curve"/>
      <point x="633" y="344" type="line"/>
      <point x="159" y="344" type="line"/>
      <point x="159" y="553" type="line"/>
      <point x="212" y="612"/>
      <point x="293" y="645"/>
      <point x="395" y="645" type="curve" smooth="yes"/>
    </contour>
  </outline>
</glyph>
<glyph name="integral" format="2">
  <advance width="387"/>
  <unicode hex="222B"/>
  <outline>
    <contour>
      <point x="235" y="758"/>
      <point x="188" y="715"/>
      <point x="188" y="627" type="curve" smooth="yes"/>
      <point x="188" y="3" type="line" smooth="yes"/>
      <point x="188" y="-79"/>
      <point x="148" y="-114"/>
      <point x="75" y="-114" type="curve" smooth="yes"/>
      <point x="53" y="-114"/>
      <point x="34" y="-108"/>
      <point x="15" y="-96" type="curve"/>
      <point x="9" y="-108" type="line"/>
      <point x="28" y="-121"/>
      <point x="51" y="-128"/>
      <point x="79" y="-128" type="curve" smooth="yes"/>
      <point x="160" y="-128"/>
      <point x="204" y="-88"/>
      <point x="204" y="3" type="curve" smooth="yes"/>
      <point x="204" y="627" type="line" smooth="yes"/>
      <point x="204" y="706"/>
      <point x="245" y="744"/>
      <point x="314" y="744" type="curve" smooth="yes"/>
      <point x="337" y="744"/>
      <point x="358" y="740"/>
      <point x="374" y="728" type="curve"/>
      <point x="379" y="741" type="line"/>
      <point x="363" y="752"/>
      <point x="342" y="758"/>
      <point x="314" y="758" type="curve" smooth="yes"/>
    </contour>
  </outline>
</glyph>
<glyph name="curvedStemParagraphSignOrnament" format="2">
  <advance width="516"/>
  <unicode hex="2761"/>
  <outline>
    <contour>
      <point x="259" y="660" type="line" smooth="yes"/>
      <point x="122" y="660"/>
      <point x="30" y="579"/>
      <point x="30" y="457" type="curve" smooth="yes"/>
      <point x="30" y="335"/>
      <point x="124" y="254"/>
      <point x="264" y="254" type="curve" smooth="yes"/>
      <point x="318" y="254" type="line"/>
      <point x="318" y="-85" type="line" smooth="yes"/>
      <point x="318" y="-160"/>
      <point x="284" y="-200"/>
      <point x="220" y="-200" type="curve" smooth="yes"/>
      <point x="144" y="-200"/>
      <point x="94" y="-138"/>
      <point x="116" y="-59" type="curve"/>
      <point x="101" y="-63" type="line"/>
      <point x="83" y="-142"/>
      <point x="120" y="-215"/>
      <point x="241" y="-215" type="curve" smooth="yes"/>
      <point x="370" y="-215"/>
      <point x="435" y="-152"/>
      <point x="435" y="-10" type="curve" smooth="yes"/>
      <point x="435" y="660" type="line"/>
    </contour>
    <contour>
      <point x="134" y="268"/>
      <point x="46" y="344"/>
      <point x="46" y="457" type="curve" smooth="yes"/>
      <point x="46" y="570"/>
      <point x="134" y="646"/>
      <point x="264" y="646" type="curve" smooth="yes"/>
      <point x="318" y="646" type="line"/>
      <point x="318" y="268" type="line"/>
      <point x="264" y="268" type="line" smooth="yes"/>
    </contour>
    <contour>
      <point x="419" y="-12" type="line" smooth="yes"/>
      <point x="419" y="-118"/>
      <point x="383" y="-186"/>
      <point x="271" y="-203" type="curve"/>
      <point x="271" y="-202" type="line"/>
      <point x="315" y="-185"/>
      <point x="334" y="-139"/>
      <point x="334" y="-85" type="curve" smooth="yes"/>
      <point x="334" y="646" type="line"/>
      <point x="419" y="646" type="line"/>
    </contour>
  </outline>
</glyph>
<glyph name="A.swsh" format="2">
  <advance width="874"/>
  <anchor x="581" y="0" name="bottom"/>
  <anchor x="862" y="0" name="ogonek"/>
  <anchor x="581" y="660" name="top"/>
  <outline>
    <contour>
      <point x="248" y="-110"/>
      <point x="287" y="-73"/>
      <point x="326" y="20" type="curve" smooth="yes"/>
      <point x="564" y="597" type="line"/>
      <point x="581" y="642" type="line"/>
      <point x="581" y="642" type="line"/>
      <point x="598" y="596" type="line"/>
      <point x="845" y="0" type="line"/>
      <point x="862" y="0" type="line"/>
      <point x="590" y="660" type="line"/>
      <point x="572" y="660" type="line"/>
      <point x="315" y="36" type="line" smooth="yes"/>
      <point x="272" y="-68"/>
      <point x="239" y="-96"/>
      <point x="163" y="-96" type="curve" smooth="yes"/>
      <point x="79" y="-96"/>
      <point x="24" y="-62"/>
      <point x="24" y="39" type="curve"/>
      <point x="10" y="32" type="line"/>
      <point x="10" y="-72"/>
      <point x="74" y="-110"/>
      <point x="165" y="-110" type="curve" smooth="yes"/>
    </contour>
    <contour>
      <point x="755" y="234" type="line"/>
      <point x="755" y="248" type="line"/>
      <point x="406" y="248" type="line"/>
      <point x="406" y="234" type="line"/>
    </contour>
    <component base="__swash_topleft" xOffset="120"/>
  </outline>
</glyph>
<glyph name="Aogonek_y" format="2">
  <advance width="1029"/>
  <anchor x="574" y="0" name="bottomC"/>
  <anchor x="293" y="660" name="top"/>
  <anchor x="574" y="0" name="ogonek"/>
  <anchor x="293" y="0" name="bottom"/>
  <outline>
    <contour>
      <point x="989" y="500" type="line"/>
      <point x="808" y="61" type="line"/>
      <point x="791" y="18" type="line"/>
      <point x="773" y="60" type="line"/>
      <point x="588" y="500" type="line"/>
      <point x="570" y="500" type="line"/>
      <point x="728" y="128" type="line"/>
      <point x="783" y="-1" type="line"/>
      <point x="743" y="-98" type="line" smooth="yes"/>
      <point x="710" y="-178"/>
      <point x="684" y="-201"/>
      <point x="653" y="-201" type="curve" smooth="yes"/>
      <point x="625" y="-201"/>
      <point x="609" y="-193"/>
      <point x="595" y="-180" type="curve"/>
      <point x="586" y="-193" type="line"/>
      <point x="599" y="-204"/>
      <point x="617" y="-215"/>
      <point x="652" y="-215" type="curve" smooth="yes"/>
      <point x="693" y="-215"/>
      <point x="722" y="-188"/>
      <point x="758" y="-101" type="curve" smooth="yes"/>
      <point x="1007" y="500" type="line"/>
    </contour>
    <contour>
      <point x="564" y="10" type="line"/>
      <point x="455" y="-33"/>
      <point x="409" y="-72"/>
      <point x="409" y="-131" type="curve" smooth="yes"/>
      <point x="409" y="-176"/>
      <point x="438" y="-202"/>
      <point x="485" y="-202" type="curve" smooth="yes"/>
      <point x="511" y="-202"/>
      <point x="528" y="-194"/>
      <point x="540" y="-184" type="curve"/>
      <point x="536" y="-170" type="line"/>
      <point x="525" y="-181"/>
      <point x="508" y="-188"/>
      <point x="485" y="-188" type="curve" smooth="yes"/>
      <point x="447" y="-188"/>
      <point x="424" y="-167"/>
      <point x="424" y="-131" type="curve" smooth="yes"/>
      <point x="424" y="-75"/>
      <point x="482" y="-35"/>
      <point x="574" y="0" type="curve"/>
    </contour>
    <component base="A"/>
  </outline>
</glyph>
<glyph name="M.swsh" format="2">
  <advance width="1000"/>
  <anchor x="607" y="0" name="bottom"/>
  <anchor x="617" y="0" name="bottomC"/>
  <anchor x="901" y="0" name="ogonek"/>
  <anchor x="607" y="660" name="top"/>
  <outline>
    <contour>
      <point x="617" y="0" type="line"/>
      <point x="886" y="637" type="line"/>
      <point x="886" y="637" type="line"/>
      <point x="885" y="580" type="line"/>
      <point x="885" y="0" type="line"/>
      <point x="901" y="0" type="line"/>
      <point x="901" y="660" type="line"/>
      <point x="880" y="660" type="line"/>
      <point x="619" y="47" type="line"/>
      <point x="607" y="19" type="line"/>
      <point x="607" y="19" type="line"/>
      <point x="595" y="48" type="line"/>
      <point x="334" y="660" type="line"/>
      <point x="313" y="660" type="line"/>
      <point x="313" y="80" type="line"/>
      <point x="329" y="80" type="line"/>
      <point x="329" y="580" type="line"/>
      <point x="328" y="637" type="line"/>
      <point x="328" y="637" type="line"/>
      <point x="597" y="0" type="line"/>
    </contour>
    <contour>
      <point x="143" y="361" type="line"/>
      <point x="71" y="377"/>
      <point x="26" y="424"/>
      <point x="26" y="502" type="curve" smooth="yes"/>
      <point x="26" y="602"/>
      <point x="83" y="646"/>
      <point x="188" y="646" type="curve" smooth="yes"/>
      <point x="322" y="646" type="line"/>
      <point x="322" y="660" type="line"/>
      <point x="183" y="660" type="line" smooth="yes"/>
      <point x="71" y="660"/>
      <point x="10" y="608"/>
      <point x="10" y="502" type="curve" smooth="yes"/>
      <point x="10" y="416"/>
      <point x="59" y="366"/>
      <point x="132" y="350" type="curve"/>
    </contour>
    <component base="swash_bttmleft" xOffset="42"/>
  </outline>
</glyph>
<glyph name="Odieresis.titl.001" format="2">
  <advance width="714"/>
  <outline>
    <contour>
      <point x="172" y="670"/>
      <point x="56" y="539"/>
      <point x="56" y="330" type="curve" smooth="yes"/>
      <point x="56" y="121"/>
      <point x="172" y="-10"/>
      <point x="357" y="-10" type="curve" smooth="yes"/>
      <point x="542" y="-10"/>
      <point x="658" y="121"/>
      <point x="658" y="330" type="curve" smooth="yes"/>
      <point x="658" y="539"/>
      <point x="542" y="670"/>
      <point x="357" y="670" type="curve" smooth="yes"/>
    </contour>
    <contour>
      <point x="532" y="656"/>
      <point x="642" y="530"/>
      <point x="642" y="330" type="curve" smooth="yes"/>
      <point x="642" y="130"/>
      <point x="532" y="4"/>
      <point x="357" y="4" type="curve" smooth="yes"/>
      <point x="182" y="4"/>
      <point x="72" y="130"/>
      <point x="72" y="330" type="curve" smooth="yes"/>
      <point x="72" y="530"/>
      <point x="182" y="656"/>
      <point x="357" y="656" type="curve" smooth="yes"/>
    </contour>
    <contour>
      <point x="518" y="639"/>
      <point x="519" y="643"/>
      <point x="519" y="648" type="curve" smooth="yes"/>
      <point x="519" y="661"/>
      <point x="510" y="670"/>
      <point x="497" y="670" type="curve" smooth="yes"/>
      <point x="486" y="670"/>
      <point x="479" y="664"/>
      <point x="476" y="655" type="curve"/>
      <point x="490" y="650"/>
      <point x="503" y="643"/>
      <point x="516" y="636" type="curve"/>
    </contour>
    <contour>
      <point x="235" y="664"/>
      <point x="228" y="670"/>
      <point x="217" y="670" type="curve" smooth="yes"/>
      <point x="204" y="670"/>
      <point x="195" y="661"/>
      <point x="195" y="648" type="curve" smooth="yes"/>
      <point x="195" y="643"/>
      <point x="196" y="639"/>
      <point x="198" y="636" type="curve"/>
      <point x="211" y="643"/>
      <point x="224" y="650"/>
      <point x="238" y="655" type="curve"/>
    </contour>
  </outline>
</glyph>
<glyph name="R.ss03" format="2">
  <advance width="612"/>
  <anchor x="346" y="0" name="bottom"/>
  <anchor x="557" y="0" name="bottomC"/>
  <anchor x="557" y="0" name="ogonek"/>
  <anchor x="293" y="660" name="top"/>
  <outline>
    <contour>
      <point x="115" y="0" type="line"/>
      <point x="115" y="300" type="line"/>
      <point x="351" y="300" type="line" smooth="yes"/>
      <point x="459" y="300"/>
      <point x="513" y="245"/>
      <point x="515" y="157" type="curve" smooth="yes"/>
      <point x="518" y="36"/>
      <point x="531" y="14"/>
      <point x="539" y="0" type="curve"/>
      <point x="557" y="0" type="line"/>
      <point x="557" y="2" type="line"/>
      <point x="548" y="14"/>
      <point x="535" y="22"/>
      <point x="531" y="160" type="curve" smooth="yes"/>
      <point x="529" y="243"/>
      <point x="486" y="295"/>
      <point x="399" y="308" type="curve"/>
      <point x="399" y="309" type="line"/>
      <point x="487" y="322"/>
      <point x="547" y="384"/>
      <point x="547" y="480" type="curve" smooth="yes"/>
      <point x="547" y="592"/>
      <point x="467" y="660"/>
      <point x="338" y="660" type="curve" smooth="yes"/>
      <point x="99" y="660" type="line"/>
      <point x="99" y="0" type="line"/>
    </contour>
    <contour>
      <point x="115" y="646" type="line"/>
      <point x="338" y="646" type="line" smooth="yes"/>
      <point x="459" y="646"/>
      <point x="531" y="584"/>
      <point x="531" y="480" type="curve" smooth="yes"/>
      <point x="531" y="376"/>
      <point x="459" y="314"/>
      <point x="338" y="314" type="curve" smooth="yes"/>
      <point x="115" y="314" type="line"/>
    </contour>
  </outline>
</glyph>
<glyph name="R.swsh.001" format="2">
  <advance width="664"/>
  <anchor x="346" y="0" name="bottom"/>
  <anchor x="660" y="-98" name="bottomC"/>
  <anchor x="659" y="-96" name="ogonek"/>
  <anchor x="293" y="660" name="top"/>
  <outline>
    <contour>
      <point x="338" y="300" type="line" smooth="yes"/>
      <point x="467" y="300"/>
      <point x="547" y="368"/>
      <point x="547" y="480" type="curve" smooth="yes"/>
      <point x="547" y="592"/>
      <point x="467" y="660"/>
      <point x="338" y="660" type="curve" smooth="yes"/>
      <point x="107" y="660" type="line"/>
      <point x="107" y="646" type="line"/>
      <point x="338" y="646" type="line" smooth="yes"/>
      <point x="459" y="646"/>
      <point x="531" y="584"/>
      <point x="531" y="480" type="curve" smooth="yes"/>
      <point x="531" y="376"/>
      <point x="459" y="314"/>
      <point x="338" y="314" type="curve" smooth="yes"/>
      <point x="107" y="314" type="line"/>
      <point x="107" y="300" type="line"/>
    </contour>
    <contour>
      <point x="115" y="0" type="line"/>
      <point x="115" y="660" type="line"/>
      <point x="99" y="660" type="line"/>
      <point x="99" y="0" type="line"/>
    </contour>
    <contour>
      <point x="664" y="-92" type="line"/>
      <point x="619" y="-82"/>
      <point x="587" y="-51"/>
      <point x="568" y="-24" type="curve" smooth="yes"/>
      <point x="339" y="312" type="line"/>
      <point x="326" y="304" type="line"/>
      <point x="552" y="-29" type="line" smooth="yes"/>
      <point x="572" y="-58"/>
      <point x="604" y="-91"/>
      <point x="657" y="-104" type="curve"/>
    </contour>
  </outline>
</glyph>
<glyph name="S.swsh" format="2">
  <advance width="594"/>
  <anchor x="321" y="-100" name="bottom"/>
  <anchor x="289" y="-100" name="bottomC"/>
  <anchor x="393" y="-100" name="ogonek"/>
  <anchor x="290" y="660" name="top"/>
  <outline>
    <contour>
      <point x="457" y="-110"/>
      <point x="548" y="-39"/>
      <point x="548" y="76" type="curve" smooth="yes"/>
      <point x="548" y="170"/>
      <point x="492" y="224"/>
      <point x="325" y="277" type="curve" smooth="yes"/>
      <point x="159" y="330"/>
      <point x="106" y="382"/>
      <point x="106" y="472" type="curve" smooth="yes"/>
      <point x="106" y="587"/>
      <point x="181" y="656"/>
      <point x="305" y="656" type="curve" smooth="yes"/>
      <point x="451" y="656"/>
      <point x="521" y="591"/>
      <point x="511" y="467" type="curve"/>
      <point x="525" y="474" type="line"/>
      <point x="534" y="602"/>
      <point x="456" y="670"/>
      <point x="305" y="670" type="curve" smooth="yes"/>
      <point x="173" y="670"/>
      <point x="90" y="593"/>
      <point x="90" y="472" type="curve" smooth="yes"/>
      <point x="90" y="374"/>
      <point x="148" y="317"/>
      <point x="318" y="264" type="curve" smooth="yes"/>
      <point x="477" y="214"/>
      <point x="532" y="163"/>
      <point x="532" y="76" type="curve" smooth="yes"/>
      <point x="532" y="-32"/>
      <point x="449" y="-96"/>
      <point x="309" y="-96" type="curve" smooth="yes"/>
      <point x="170" y="-96"/>
      <point x="90" y="-38"/>
      <point x="90" y="63" type="curve" smooth="yes"/>
      <point x="90" y="85"/>
      <point x="93" y="107"/>
      <point x="99" y="129" type="curve"/>
      <point x="84" y="124" type="line"/>
      <point x="78" y="100"/>
      <point x="75" y="81"/>
      <point x="75" y="61" type="curve" smooth="yes"/>
      <point x="75" y="-47"/>
      <point x="162" y="-110"/>
      <point x="309" y="-110" type="curve" smooth="yes"/>
    </contour>
  </outline>
</glyph>
<glyph name="Udieresis.titl" format="2">
  <advance width="680"/>
  <outline>
    <contour>
      <point x="427" y="618"/>
      <point x="436" y="627"/>
      <point x="436" y="640" type="curve" smooth="yes"/>
      <point x="436" y="653"/>
      <point x="427" y="662"/>
      <point x="414" y="662" type="curve" smooth="yes"/>
      <point x="401" y="662"/>
      <point x="392" y="653"/>
      <point x="392" y="640" type="curve" smooth="yes"/>
      <point x="392" y="627"/>
      <point x="401" y="618"/>
      <point x="414" y="618" type="curve" smooth="yes"/>
    </contour>
    <contour>
      <point x="277" y="618"/>
      <point x="286" y="627"/>
      <point x="286" y="640" type="curve" smooth="yes"/>
      <point x="286" y="653"/>
      <point x="277" y="662"/>
      <point x="264" y="662" type="curve" smooth="yes"/>
      <point x="251" y="662"/>
      <point x="242" y="653"/>
      <point x="242" y="640" type="curve" smooth="yes"/>
      <point x="242" y="627"/>
      <point x="251" y="618"/>
      <point x="264" y="618" type="curve" smooth="yes"/>
    </contour>
    <contour>
      <point x="573" y="660" type="line"/>
      <point x="573" y="235" type="line" smooth="yes"/>
      <point x="573" y="88"/>
      <point x="486" y="4"/>
      <point x="340" y="4" type="curve" smooth="yes"/>
      <point x="194" y="4"/>
      <point x="107" y="88"/>
      <point x="107" y="235" type="curve" smooth="yes"/>
      <point x="107" y="660" type="line"/>
      <point x="91" y="660" type="line"/>
      <point x="91" y="235" type="line" smooth="yes"/>
      <point x="91" y="78"/>
      <point x="184" y="-10"/>
      <point x="340" y="-10" type="curve" smooth="yes"/>
      <point x="496" y="-10"/>
      <point x="589" y="78"/>
      <point x="589" y="235" type="curve" smooth="yes"/>
      <point x="589" y="660" type="line"/>
    </contour>
  </outline>
</glyph>
<glyph name="aogonek_j" format="2">
  <advance width="703"/>
  <outline>
    <contour>
      <point x="148" y="510"/>
      <point x="87" y="471"/>
      <point x="56" y="388" type="curve"/>
      <point x="69" y="378" type="line"/>
      <point x="100" y="459"/>
      <point x="157" y="496"/>
      <point x="248" y="496" type="curve" smooth="yes"/>
      <point x="351" y="496"/>
      <point x="407" y="441"/>
      <point x="407" y="348" type="curve" smooth="yes"/>
      <point x="407" y="112" type="line"/>
      <point x="407" y="82" type="line" smooth="yes"/>
      <point x="407" y="4"/>
      <point x="448" y="-10"/>
      <point x="479" y="-10" type="curve" smooth="yes"/>
      <point x="479" y="-10"/>
      <point x="515" y="-1"/>
      <point x="515" y="-1" type="curve"/>
      <point x="516" y="13" type="line"/>
      <point x="507" y="6"/>
      <point x="493" y="4"/>
      <point x="478" y="4" type="curve" smooth="yes"/>
      <point x="445" y="4"/>
      <point x="423" y="27"/>
      <point x="423" y="76" type="curve" smooth="yes"/>
      <point x="423" y="348" type="line" smooth="yes"/>
      <point x="423" y="453"/>
      <point x="361" y="510"/>
      <point x="248" y="510" type="curve" smooth="yes"/>
    </contour>
    <contour>
      <point x="230" y="253" type="line" smooth="yes"/>
      <point x="100" y="229"/>
      <point x="46" y="187"/>
      <point x="46" y="108" type="curve" smooth="yes"/>
      <point x="46" y="34"/>
      <point x="104" y="-10"/>
      <point x="202" y="-10" type="curve" smooth="yes"/>
      <point x="300" y="-10"/>
      <point x="415" y="37"/>
      <point x="415" y="140" type="curve"/>
      <point x="407" y="151" type="line"/>
      <point x="407" y="47"/>
      <point x="285" y="4"/>
      <point x="207" y="4" type="curve" smooth="yes"/>
      <point x="116" y="4"/>
      <point x="62" y="43"/>
      <point x="62" y="108" type="curve" smooth="yes"/>
      <point x="62" y="175"/>
      <point x="110" y="217"/>
      <point x="241" y="241" type="curve" smooth="yes"/>
      <point x="414" y="273" type="line"/>
      <point x="412" y="287" type="line"/>
    </contour>
    <contour>
      <point x="392" y="-28"/>
      <point x="330" y="-74"/>
      <point x="330" y="-135" type="curve" smooth="yes"/>
      <point x="330" y="-177"/>
      <point x="359" y="-202"/>
      <point x="406" y="-202" type="curve" smooth="yes"/>
      <point x="432" y="-202"/>
      <point x="449" y="-194"/>
      <point x="461" y="-184" type="curve"/>
      <point x="457" y="-170" type="line"/>
      <point x="446" y="-181"/>
      <point x="429" y="-188"/>
      <point x="406" y="-188" type="curve" smooth="yes"/>
      <point x="368" y="-188"/>
      <point x="345" y="-168"/>
      <point x="345" y="-135" type="curve" smooth="yes"/>
      <point x="345" y="-77"/>
      <point x="427" y="-27"/>
      <point x="515" y="-1" type="curve"/>
      <point x="499" y="3" type="line"/>
    </contour>
    <contour>
      <point x="602" y="500" type="line"/>
      <point x="602" y="-94" type="line" smooth="yes"/>
      <point x="602" y="-169"/>
      <point x="583" y="-201"/>
      <point x="540" y="-201" type="curve" smooth="yes"/>
      <point x="513" y="-201"/>
      <point x="503" y="-197"/>
      <point x="491" y="-186" type="curve"/>
      <point x="486" y="-200" type="line"/>
      <point x="503" y="-213"/>
      <point x="517" y="-215"/>
      <point x="540" y="-215" type="curve" smooth="yes"/>
      <point x="594" y="-215"/>
      <point x="618" y="-179"/>
      <point x="618" y="-94" type="curve" smooth="yes"/>
      <point x="618" y="500" type="line"/>
    </contour>
    <contour>
      <point x="597" y="642"/>
      <point x="588" y="633"/>
      <point x="588" y="620" type="curve" smooth="yes"/>
      <point x="588" y="607"/>
      <point x="597" y="598"/>
      <point x="610" y="598" type="curve" smooth="yes"/>
      <point x="623" y="598"/>
      <point x="632" y="607"/>
      <point x="632" y="620" type="curve" smooth="yes"/>
      <point x="632" y="633"/>
      <point x="623" y="642"/>
      <point x="610" y="642" type="curve" smooth="yes"/>
    </contour>
  </outline>
</glyph>
<glyph name="c.sc" format="2">
  <advance width="577"/>
  <anchor x="303" y="0" name="bottom"/>
  <anchor x="311" y="0" name="bottomC"/>
  <anchor x="383" y="0" name="ogonek"/>
  <anchor x="303" y="560" name="top"/>
  <outline>
    <contour>
      <point x="525" y="146" type="line"/>
      <point x="498" y="57"/>
      <point x="420" y="6"/>
      <point x="310" y="6" type="curve" smooth="yes"/>
      <point x="166" y="6"/>
      <point x="68" y="111"/>
      <point x="68" y="280" type="curve" smooth="yes"/>
      <point x="68" y="448"/>
      <point x="165" y="554"/>
      <point x="310" y="554" type="curve" smooth="yes"/>
      <point x="423" y="554"/>
      <point x="492" y="508"/>
      <point x="521" y="414" type="curve"/>
      <point x="536" y="421" type="line"/>
      <point x="506" y="519"/>
      <point x="432" y="568"/>
      <point x="310" y="568" type="curve" smooth="yes"/>
      <point x="155" y="568"/>
      <point x="52" y="457"/>
      <point x="52" y="280" type="curve" smooth="yes"/>
      <point x="52" y="103"/>
      <point x="156" y="-8"/>
      <point x="310" y="-8" type="curve" smooth="yes"/>
      <point x="427" y="-8"/>
      <point x="511" y="46"/>
      <point x="540" y="140" type="curve"/>
    </contour>
  </outline>
</glyph>
<glyph name="dcroat.sc" format="2">
  <advance width="615"/>
  <anchor x="286" y="0" name="bottom"/>
  <anchor x="240" y="0" name="bottomC"/>
  <anchor x="280" y="0" name="ogonek"/>
  <anchor x="286" y="560" name="top"/>
  <anchor x="325" y="278" name="center"/>
  <outline>
    <contour>
      <point x="8" y="290" type="line"/>
      <point x="8" y="276" type="line"/>
      <point x="295" y="276" type="line"/>
      <point x="295" y="290" type="line"/>
    </contour>
    <component base="d.sc" xOffset="11"/>
  </outline>
</glyph>
<glyph name="dollar.tf" format="2">
  <advance width="604"/>
  <outline>
    <contour>
      <point x="181" y="660"/>
      <point x="104" y="578"/>
      <point x="104" y="487" type="curve" smooth="yes"/>
      <point x="104" y="245"/>
      <point x="517" y="388"/>
      <point x="517" y="165" type="curve" smooth="yes"/>
      <point x="517" y="68"/>
      <point x="430" y="14"/>
      <point x="324" y="14" type="curve" smooth="yes"/>
      <point x="212" y="14"/>
      <point x="127" y="72"/>
      <point x="106" y="179" type="curve"/>
      <point x="91" y="171" type="line"/>
      <point x="116" y="60"/>
      <point x="204" y="0"/>
      <point x="324" y="0" type="curve" smooth="yes"/>
      <point x="451" y="0"/>
      <point x="533" y="68"/>
      <point x="533" y="165" type="curve" smooth="yes"/>
      <point x="533" y="408"/>
      <point x="120" y="260"/>
      <point x="120" y="487" type="curve" smooth="yes"/>
      <point x="120" y="577"/>
      <point x="194" y="646"/>
      <point x="311" y="646" type="curve" smooth="yes"/>
      <point x="417" y="646"/>
      <point x="487" y="602"/>
      <point x="511" y="502" type="curve"/>
      <point x="524" y="512" type="line"/>
      <point x="496" y="614"/>
      <point x="422" y="660"/>
      <point x="311" y="660" type="curve" smooth="yes"/>
    </contour>
    <contour>
      <point x="306" y="760" type="line"/>
      <point x="306" y="-100" type="line"/>
      <point x="320" y="-100" type="line"/>
      <point x="320" y="760" type="line"/>
    </contour>
  </outline>
</glyph>
<glyph name="emdashsuperior" format="2">
  <advance width="592"/>
  <outline>
    <contour>
      <point x="43" y="540" type="line"/>
      <point x="43" y="526" type="line"/>
      <point x="549" y="526" type="line"/>
      <point x="549" y="540" type="line"/>
    </contour>
  </outline>
</glyph>
<glyph name="f.sc" format="2">
  <advance width="495"/>
  <anchor x="98" y="0" name="bottom"/>
  <anchor x="106" y="0" name="bottomC"/>
  <anchor x="106" y="0" name="ogonek"/>
  <anchor x="283" y="560" name="top"/>
  <outline>
    <contour>
      <point x="90" y="560" type="line"/>
      <point x="90" y="0" type="line"/>
      <point x="106" y="0" type="line"/>
      <point x="106" y="560" type="line"/>
    </contour>
    <contour>
      <point x="96" y="293" type="line"/>
      <point x="96" y="279" type="line"/>
      <point x="402" y="279" type="line"/>
      <point x="402" y="293" type="line"/>
    </contour>
    <contour>
      <point x="96" y="560" type="line"/>
      <point x="96" y="546" type="line"/>
      <point x="475" y="546" type="line"/>
      <point x="475" y="560" type="line"/>
    </contour>
  </outline>
</glyph>
<glyph name="five.osf" format="2">
  <advance width="535"/>
  <outline>
    <contour>
      <point x="176" y="300"/>
      <point x="119" y="261"/>
      <point x="88" y="218" type="curve"/>
      <point x="87" y="218" type="line"/>
      <point x="89" y="237" type="line"/>
      <point x="115" y="546" type="line"/>
      <point x="461" y="546" type="line"/>
      <point x="461" y="560" type="line"/>
      <point x="102" y="560" type="line"/>
      <point x="72" y="201" type="line"/>
      <point x="86" y="201" type="line"/>
      <point x="117" y="242"/>
      <point x="172" y="286"/>
      <point x="280" y="286" type="curve" smooth="yes"/>
      <point x="392" y="286"/>
      <point x="470" y="208"/>
      <point x="470" y="96" type="curve" smooth="yes"/>
      <point x="470" y="-17"/>
      <point x="390" y="-96"/>
      <point x="275" y="-96" type="curve" smooth="yes"/>
      <point x="160" y="-96"/>
      <point x="81" y="-50"/>
      <point x="64" y="55" type="curve"/>
      <point x="50" y="49" type="line"/>
      <point x="73" y="-69"/>
      <point x="161" y="-110"/>
      <point x="275" y="-110" type="curve" smooth="yes"/>
      <point x="399" y="-110"/>
      <point x="486" y="-25"/>
      <point x="486" y="96" type="curve" smooth="yes"/>
      <point x="486" y="216"/>
      <point x="401" y="300"/>
      <point x="280" y="300" type="curve" smooth="yes"/>
    </contour>
  </outline>
</glyph>
<glyph name="five.sc" format="2">
  <advance width="477"/>
  <outline>
    <contour>
      <point x="159" y="340"/>
      <point x="109" y="307"/>
      <point x="82" y="271" type="curve"/>
      <point x="81" y="271" type="line"/>
      <point x="83" y="287" type="line"/>
      <point x="106" y="546" type="line"/>
      <point x="409" y="546" type="line"/>
      <point x="409" y="560" type="line"/>
      <point x="93" y="560" type="line"/>
      <point x="66" y="255" type="line"/>
      <point x="80" y="255" type="line"/>
      <point x="107" y="289"/>
      <point x="155" y="326"/>
      <point x="250" y="326" type="curve" smooth="yes"/>
      <point x="348" y="326"/>
      <point x="415" y="260"/>
      <point x="415" y="167" type="curve" smooth="yes"/>
      <point x="415" y="72"/>
      <point x="346" y="6"/>
      <point x="245" y="6" type="curve" smooth="yes"/>
      <point x="145" y="6"/>
      <point x="76" y="44"/>
      <point x="61" y="132" type="curve"/>
      <point x="47" y="126" type="line"/>
      <point x="68" y="26"/>
      <point x="145" y="-8"/>
      <point x="245" y="-8" type="curve" smooth="yes"/>
      <point x="355" y="-8"/>
      <point x="431" y="63"/>
      <point x="431" y="167" type="curve" smooth="yes"/>
      <point x="431" y="269"/>
      <point x="357" y="340"/>
      <point x="250" y="340" type="curve" smooth="yes"/>
    </contour>
  </outline>
</glyph>
<glyph name="four.tosf" format="2">
  <advance width="604"/>
  <outline>
    <contour>
      <point x="403" y="-100" type="line"/>
      <point x="403" y="105" type="line"/>
      <point x="554" y="105" type="line"/>
      <point x="554" y="119" type="line"/>
      <point x="403" y="119" type="line"/>
      <point x="403" y="560" type="line"/>
      <point x="379" y="560" type="line"/>
      <point x="57" y="119" type="line"/>
      <point x="57" y="105" type="line"/>
      <point x="387" y="105" type="line"/>
      <point x="387" y="-100" type="line"/>
    </contour>
    <contour>
      <point x="332" y="471" type="line" smooth="yes"/>
      <point x="350" y="495"/>
      <point x="368" y="520"/>
      <point x="386" y="545" type="curve"/>
      <point x="387" y="545" type="line"/>
      <point x="387" y="502"/>
      <point x="387" y="457"/>
      <point x="387" y="414" type="curve" smooth="yes"/>
      <point x="387" y="119" type="line"/>
      <point x="75" y="119" type="line"/>
    </contour>
  </outline>
</glyph>
<glyph name="g.ss01" format="2">
  <advance width="585"/>
  <anchor x="284" y="-210" name="bottom"/>
  <anchor x="274" y="-210" name="bottomC"/>
  <anchor x="392" y="-189" name="ogonek"/>
  <anchor x="282" y="500" name="top"/>
  <outline>
    <contour>
      <point x="484" y="499" type="line"/>
      <point x="484" y="328" type="line"/>
      <point x="484" y="324" type="line"/>
      <point x="484" y="7" type="line" smooth="yes"/>
      <point x="484" y="-123"/>
      <point x="405" y="-201"/>
      <point x="271" y="-201" type="curve" smooth="yes"/>
      <point x="166" y="-201"/>
      <point x="96" y="-157"/>
      <point x="83" y="-83" type="curve"/>
      <point x="67" y="-90" type="line"/>
      <point x="83" y="-168"/>
      <point x="160" y="-215"/>
      <point x="271" y="-215" type="curve" smooth="yes"/>
      <point x="415" y="-215"/>
      <point x="500" y="-132"/>
      <point x="500" y="8" type="curve" smooth="yes"/>
      <point x="500" y="397" type="line"/>
      <point x="500" y="499" type="line"/>
    </contour>
    <contour>
      <point x="137" y="510"/>
      <point x="51" y="413"/>
      <point x="51" y="250" type="curve" smooth="yes"/>
      <point x="51" y="87"/>
      <point x="137" y="-10"/>
      <point x="280" y="-10" type="curve" smooth="yes"/>
      <point x="410" y="-10"/>
      <point x="494" y="79"/>
      <point x="493" y="230" type="curve"/>
      <point x="484" y="246" type="line"/>
      <point x="484" y="95"/>
      <point x="404" y="4"/>
      <point x="283" y="4" type="curve" smooth="yes"/>
      <point x="148" y="4"/>
      <point x="68" y="95"/>
      <point x="68" y="250" type="curve" smooth="yes"/>
      <point x="68" y="405"/>
      <point x="148" y="496"/>
      <point x="283" y="496" type="curve" smooth="yes"/>
      <point x="405" y="496"/>
      <point x="485" y="404"/>
      <point x="484" y="253" type="curve"/>
      <point x="494" y="267" type="line"/>
      <point x="494" y="420"/>
      <point x="409" y="510"/>
      <point x="280" y="510" type="curve" smooth="yes"/>
    </contour>
  </outline>
</glyph>
<glyph name="i.sc" format="2">
  <advance width="196"/>
  <anchor x="98" y="0" name="bottom"/>
  <anchor x="106" y="0" name="bottomC"/>
  <anchor x="106" y="0" name="ogonek"/>
  <anchor x="98" y="560" name="top"/>
  <outline>
    <contour>
      <point x="90" y="560" type="line"/>
      <point x="90" y="0" type="line"/>
      <point x="106" y="0" type="line"/>
      <point x="106" y="560" type="line"/>
    </contour>
  </outline>
</glyph>
<glyph name="iacute_j.loclNLD" format="2">
  <advance width="372"/>
  <anchor x="93" y="500" name="top"/>
  <anchor x="101" y="0" name="ogonek"/>
  <anchor x="93" y="0" name="bottom"/>
  <anchor x="101" y="0" name="bottomC"/>
  <outline>
    <contour>
      <point x="271" y="500" type="line"/>
      <point x="271" y="-64" type="line" smooth="yes"/>
      <point x="271" y="-147"/>
      <point x="225" y="-201"/>
      <point x="155" y="-201" type="curve" smooth="yes"/>
      <point x="131" y="-201"/>
      <point x="105" y="-194"/>
      <point x="89" y="-179" type="curve"/>
      <point x="84" y="-193" type="line"/>
      <point x="100" y="-207"/>
      <point x="127" y="-215"/>
      <point x="155" y="-215" type="curve" smooth="yes"/>
      <point x="235" y="-215"/>
      <point x="287" y="-156"/>
      <point x="287" y="-64" type="curve" smooth="yes"/>
      <point x="287" y="500" type="line"/>
    </contour>
    <component base="iacute"/>
    <component base="acute" xOffset="-23"/>
  </outline>
</glyph>
<glyph name="ij.sc.ss05" format="2">
  <advance width="503"/>
  <outline>
    <contour>
      <point x="83" y="560" type="line"/>
      <point x="83" y="223" type="line"/>
      <point x="99" y="223" type="line"/>
      <point x="99" y="560" type="line"/>
    </contour>
    <contour>
      <point x="404" y="560" type="line"/>
      <point x="404" y="178" type="line" smooth="yes"/>
      <point x="404" y="65"/>
      <point x="350" y="6"/>
      <point x="247" y="6" type="curve" smooth="yes"/>
      <point x="149" y="6"/>
      <point x="97" y="52"/>
      <point x="97" y="139" type="curve"/>
      <point x="81" y="139" type="line"/>
      <point x="81" y="43"/>
      <point x="138" y="-8"/>
      <point x="247" y="-8" type="curve" smooth="yes"/>
      <point x="360" y="-8"/>
      <point x="420" y="56"/>
      <point x="420" y="178" type="curve" smooth="yes"/>
      <point x="420" y="560" type="line"/>
    </contour>
  </outline>
</glyph>
<glyph name="j_j.liga" format="2">
  <advance width="372"/>
  <outline>
    <contour>
      <point x="85" y="500" type="line"/>
      <point x="85" y="-64" type="line" smooth="yes"/>
      <point x="85" y="-147"/>
      <point x="39" y="-201"/>
      <point x="-31" y="-201" type="curve" smooth="yes"/>
      <point x="-55" y="-201"/>
      <point x="-81" y="-194"/>
      <point x="-97" y="-179" type="curve"/>
      <point x="-102" y="-193" type="line"/>
      <point x="-86" y="-207"/>
      <point x="-59" y="-215"/>
      <point x="-31" y="-215" type="curve" smooth="yes"/>
      <point x="49" y="-215"/>
      <point x="101" y="-156"/>
      <point x="101" y="-64" type="curve" smooth="yes"/>
      <point x="101" y="500" type="line"/>
    </contour>
    <contour>
      <point x="271" y="500" type="line"/>
      <point x="271" y="-64" type="line" smooth="yes"/>
      <point x="271" y="-147"/>
      <point x="225" y="-201"/>
      <point x="155" y="-201" type="curve" smooth="yes"/>
      <point x="131" y="-201"/>
      <point x="105" y="-194"/>
      <point x="89" y="-179" type="curve"/>
      <point x="84" y="-193" type="line"/>
      <point x="100" y="-207"/>
      <point x="127" y="-215"/>
      <point x="155" y="-215" type="curve" smooth="yes"/>
      <point x="235" y="-215"/>
      <point x="287" y="-156"/>
      <point x="287" y="-64" type="curve" smooth="yes"/>
      <point x="287" y="500" type="line"/>
    </contour>
    <contour>
      <point x="80" y="642"/>
      <point x="71" y="633"/>
      <point x="71" y="620" type="curve" smooth="yes"/>
      <point x="71" y="607"/>
      <point x="80" y="598"/>
      <point x="93" y="598" type="curve" smooth="yes"/>
      <point x="106" y="598"/>
      <point x="115" y="607"/>
      <point x="115" y="620" type="curve" smooth="yes"/>
      <point x="115" y="633"/>
      <point x="106" y="642"/>
      <point x="93" y="642" type="curve" smooth="yes"/>
    </contour>
    <contour>
      <point x="266" y="642"/>
      <point x="257" y="633"/>
      <point x="257" y="620" type="curve" smooth="yes"/>
      <point x="257" y="607"/>
      <point x="266" y="598"/>
      <point x="279" y="598" type="curve" smooth="yes"/>
      <point x="292" y="598"/>
      <point x="301" y="607"/>
      <point x="301" y="620" type="curve" smooth="yes"/>
      <point x="301" y="633"/>
      <point x="292" y="642"/>
      <point x="279" y="642" type="curve" smooth="yes"/>
    </contour>
  </outline>
</glyph>
<glyph name="lslash.ss02" format="2">
  <advance width="212"/>
  <anchor x="110" y="0" name="bottom"/>
  <anchor x="118" y="0" name="bottomC"/>
  <anchor x="118" y="0" name="ogonek"/>
  <anchor x="110" y="730" name="top"/>
  <anchor x="225" y="730" name="topright"/>
  <outline>
    <contour>
      <point x="113" y="343" type="line"/>
      <point x="191" y="400" type="line"/>
      <point x="191" y="417" type="line"/>
      <point x="111" y="359" type="line"/>
      <point x="29" y="300" type="line"/>
      <point x="29" y="283" type="line"/>
    </contour>
    <component base="l.ss02" xOffset="13"/>
  </outline>
</glyph>
<glyph name="n.sc" format="2">
  <advance width="618"/>
  <anchor x="309" y="0" name="bottom"/>
  <anchor x="528" y="0" name="bottomC"/>
  <anchor x="528" y="0" name="ogonek"/>
  <anchor x="306" y="560" name="top"/>
  <outline>
    <contour>
      <point x="512" y="560" type="line"/>
      <point x="512" y="69" type="line"/>
      <point x="513" y="19" type="line"/>
      <point x="512" y="19" type="line"/>
      <point x="477" y="66" type="line"/>
      <point x="112" y="560" type="line"/>
      <point x="90" y="560" type="line"/>
      <point x="90" y="0" type="line"/>
      <point x="106" y="0" type="line"/>
      <point x="106" y="491" type="line"/>
      <point x="105" y="541" type="line"/>
      <point x="106" y="541" type="line"/>
      <point x="133" y="505" type="line"/>
      <point x="506" y="0" type="line"/>
      <point x="528" y="0" type="line"/>
      <point x="528" y="560" type="line"/>
    </contour>
  </outline>
</glyph>
<glyph name="nine.osf" format="2">
  <advance width="566"/>
  <outline>
    <contour>
      <point x="141" y="570"/>
      <point x="57" y="491"/>
      <point x="57" y="368" type="curve" smooth="yes"/>
      <point x="57" y="245"/>
      <point x="138" y="165"/>
      <point x="268" y="165" type="curve" smooth="yes"/>
      <point x="371" y="165"/>
      <point x="483" y="241"/>
      <point x="477" y="370" type="curve"/>
      <point x="479" y="370" type="line"/>
      <point x="486" y="328"/>
      <point x="491" y="282"/>
      <point x="491" y="234" type="curve" smooth="yes"/>
      <point x="491" y="73"/>
      <point x="438" y="-96"/>
      <point x="272" y="-96" type="curve" smooth="yes"/>
      <point x="161" y="-96"/>
      <point x="94" y="-42"/>
      <point x="80" y="39" type="curve"/>
      <point x="63" y="30" type="line"/>
      <point x="81" y="-53"/>
      <point x="163" y="-110"/>
      <point x="272" y="-110" type="curve" smooth="yes"/>
      <point x="407" y="-110"/>
      <point x="506" y="2"/>
      <point x="506" y="230" type="curve" smooth="yes"/>
      <point x="506" y="447"/>
      <point x="423" y="570"/>
      <point x="271" y="570" type="curve" smooth="yes"/>
    </contour>
    <contour>
      <point x="387" y="556"/>
      <point x="466" y="474"/>
      <point x="466" y="366" type="curve" smooth="yes"/>
      <point x="466" y="276"/>
      <point x="383" y="179"/>
      <point x="268" y="179" type="curve" smooth="yes"/>
      <point x="150" y="179"/>
      <point x="73" y="254"/>
      <point x="73" y="366" type="curve" smooth="yes"/>
      <point x="73" y="480"/>
      <point x="150" y="556"/>
      <point x="272" y="556" type="curve" smooth="yes"/>
    </contour>
  </outline>
</glyph>
<glyph name="numbersign.tf" format="2">
  <advance width="604"/>
  <outline>
    <contour>
      <point x="443" y="660" type="line"/>
      <point x="343" y="0" type="line"/>
      <point x="359" y="0" type="line"/>
      <point x="459" y="660" type="line"/>
    </contour>
    <contour>
      <point x="39" y="227" type="line"/>
      <point x="39" y="213" type="line"/>
      <point x="535" y="213" type="line"/>
      <point x="535" y="227" type="line"/>
    </contour>
    <contour>
      <point x="240" y="660" type="line"/>
      <point x="140" y="0" type="line"/>
      <point x="156" y="0" type="line"/>
      <point x="256" y="660" type="line"/>
    </contour>
    <contour>
      <point x="69" y="457" type="line"/>
      <point x="69" y="443" type="line"/>
      <point x="565" y="443" type="line"/>
      <point x="565" y="457" type="line"/>
    </contour>
  </outline>
</glyph>
<glyph name="ogonek.e" format="2">
  <advance width="518"/>
  <anchor x="369" y="21" name="_ogonek"/>
  <outline>
    <contour>
      <point x="252" y="-32"/>
      <point x="221" y="-72"/>
      <point x="221" y="-124" type="curve" smooth="yes"/>
      <point x="221" y="-176"/>
      <point x="261" y="-202"/>
      <point x="309" y="-202" type="curve" smooth="yes"/>
      <point x="345" y="-202"/>
      <point x="365" y="-192"/>
      <point x="381" y="-181" type="curve"/>
      <point x="375" y="-168" type="line"/>
      <point x="361" y="-179"/>
      <point x="343" y="-188"/>
      <point x="309" y="-188" type="curve" smooth="yes"/>
      <point x="269" y="-188"/>
      <point x="236" y="-167"/>
      <point x="236" y="-124" type="curve" smooth="yes"/>
      <point x="236" y="-75"/>
      <point x="269" y="-38"/>
      <point x="384" y="16" type="curve"/>
      <point x="369" y="21" type="line"/>
    </contour>
  </outline>
</glyph>
<glyph name="one.tf" format="2">
  <advance width="604"/>
  <outline>
    <contour>
      <point x="343" y="0" type="line"/>
      <point x="343" y="518" type="line"/>
      <point x="343" y="660" type="line"/>
      <point x="327" y="660" type="line"/>
      <point x="327" y="630"/>
      <point x="327" y="598"/>
      <point x="327" y="568" type="curve" smooth="yes"/>
      <point x="327" y="0" type="line"/>
    </contour>
    <contour>
      <point x="537" y="0" type="line"/>
      <point x="537" y="14" type="line"/>
      <point x="111" y="14" type="line"/>
      <point x="111" y="0" type="line"/>
    </contour>
    <contour>
      <point x="182" y="512"/>
      <point x="308" y="582"/>
      <point x="343" y="660" type="curve"/>
      <point x="327" y="660" type="line"/>
      <point x="291" y="588"/>
      <point x="171" y="525"/>
      <point x="102" y="500" type="curve"/>
      <point x="107" y="485" type="line"/>
    </contour>
  </outline>
</glyph>
<glyph name="question.sc" format="2">
  <advance width="409"/>
  <outline>
    <contour>
      <point x="95" y="568"/>
      <point x="40" y="515"/>
      <point x="25" y="425" type="curve"/>
      <point x="41" y="419" type="line"/>
      <point x="55" y="502"/>
      <point x="101" y="554"/>
      <point x="212" y="554" type="curve" smooth="yes"/>
      <point x="301" y="554"/>
      <point x="364" y="506"/>
      <point x="364" y="424" type="curve" smooth="yes"/>
      <point x="364" y="334"/>
      <point x="322" y="286"/>
      <point x="190" y="248" type="curve"/>
      <point x="190" y="129" type="line"/>
      <point x="206" y="129" type="line"/>
      <point x="206" y="239" type="line"/>
      <point x="329" y="272"/>
      <point x="380" y="330"/>
      <point x="380" y="425" type="curve" smooth="yes"/>
      <point x="380" y="515"/>
      <point x="310" y="568"/>
      <point x="212" y="568" type="curve" smooth="yes"/>
    </contour>
    <component base="period" xOffset="112"/>
  </outline>
</glyph>
<glyph name="r.sc.ss03" format="2">
  <advance width="545"/>
  <anchor x="298" y="0" name="bottom"/>
  <anchor x="494" y="0" name="bottomC"/>
  <anchor x="494" y="0" name="ogonek"/>
  <anchor x="261" y="560" name="top"/>
  <outline>
    <contour>
      <point x="106" y="0" type="line"/>
      <point x="106" y="254" type="line"/>
      <point x="311" y="254" type="line" smooth="yes"/>
      <point x="406" y="254"/>
      <point x="453" y="208"/>
      <point x="455" y="133" type="curve" smooth="yes"/>
      <point x="458" y="31"/>
      <point x="469" y="12"/>
      <point x="476" y="0" type="curve"/>
      <point x="494" y="0" type="line"/>
      <point x="494" y="2" type="line"/>
      <point x="486" y="12"/>
      <point x="474" y="20"/>
      <point x="471" y="136" type="curve" smooth="yes"/>
      <point x="469" y="206"/>
      <point x="432" y="250"/>
      <point x="355" y="261" type="curve"/>
      <point x="355" y="262" type="line"/>
      <point x="433" y="273"/>
      <point x="485" y="325"/>
      <point x="485" y="407" type="curve" smooth="yes"/>
      <point x="485" y="502"/>
      <point x="415" y="560"/>
      <point x="301" y="560" type="curve" smooth="yes"/>
      <point x="90" y="560" type="line"/>
      <point x="90" y="0" type="line"/>
    </contour>
    <contour>
      <point x="106" y="546" type="line"/>
      <point x="301" y="546" type="line" smooth="yes"/>
      <point x="407" y="546"/>
      <point x="469" y="494"/>
      <point x="469" y="407" type="curve" smooth="yes"/>
      <point x="469" y="319"/>
      <point x="407" y="268"/>
      <point x="301" y="268" type="curve" smooth="yes"/>
      <point x="106" y="268" type="line"/>
    </contour>
  </outline>
</glyph>
<glyph name="r.swsh" format="2">
  <advance width="418"/>
  <anchor x="95" y="0" name="bottom"/>
  <anchor x="101" y="0" name="bottomC"/>
  <anchor x="101" y="0" name="ogonek"/>
  <anchor x="195" y="500" name="top"/>
  <outline>
    <contour>
      <point x="438" y="440" type="line"/>
      <point x="350" y="451"/>
      <point x="336" y="510"/>
      <point x="248" y="510" type="curve" smooth="yes"/>
      <point x="150" y="510"/>
      <point x="92" y="441"/>
      <point x="92" y="334" type="curve"/>
      <point x="101" y="334" type="line"/>
      <point x="102" y="443"/>
      <point x="167" y="496"/>
      <point x="251" y="496" type="curve" smooth="yes"/>
      <point x="331" y="496"/>
      <point x="341" y="441"/>
      <point x="431" y="429" type="curve"/>
    </contour>
    <contour>
      <point x="101" y="0" type="line"/>
      <point x="101" y="379" type="line"/>
      <point x="101" y="388" type="line"/>
      <point x="101" y="500" type="line"/>
      <point x="85" y="500" type="line"/>
      <point x="85" y="0" type="line"/>
    </contour>
  </outline>
</glyph>
<glyph name="seven.tosf" format="2">
  <advance width="604"/>
  <outline>
    <contour>
      <point x="70" y="546" type="line"/>
      <point x="523" y="546" type="line"/>
      <point x="524" y="555" type="line"/>
      <point x="349" y="373"/>
      <point x="269" y="154"/>
      <point x="248" y="-100" type="curve"/>
      <point x="265" y="-100" type="line"/>
      <point x="286" y="165"/>
      <point x="372" y="373"/>
      <point x="533" y="546" type="curve"/>
      <point x="533" y="560" type="line"/>
      <point x="70" y="560" type="line"/>
    </contour>
  </outline>
</glyph>
<glyph name="six.tf" format="2">
  <advance width="604"/>
  <outline>
    <contour>
      <point x="206" y="670"/>
      <point x="97" y="558"/>
      <point x="97" y="330" type="curve" smooth="yes"/>
      <point x="97" y="107"/>
      <point x="176" y="-10"/>
      <point x="332" y="-10" type="curve" smooth="yes"/>
      <point x="462" y="-10"/>
      <point x="545" y="69"/>
      <point x="545" y="192" type="curve" smooth="yes"/>
      <point x="545" y="313"/>
      <point x="468" y="395"/>
      <point x="336" y="395" type="curve" smooth="yes"/>
      <point x="228" y="395"/>
      <point x="124" y="320"/>
      <point x="124" y="194" type="curve"/>
      <point x="122" y="194" type="line"/>
      <point x="117" y="236"/>
      <point x="112" y="277"/>
      <point x="112" y="317" type="curve" smooth="yes"/>
      <point x="112" y="485"/>
      <point x="173" y="656"/>
      <point x="352" y="656" type="curve" smooth="yes"/>
      <point x="443" y="656"/>
      <point x="495" y="607"/>
      <point x="515" y="543" type="curve"/>
      <point x="530" y="550" type="line"/>
      <point x="506" y="618"/>
      <point x="452" y="670"/>
      <point x="352" y="670" type="curve" smooth="yes"/>
    </contour>
    <contour>
      <point x="453" y="381"/>
      <point x="529" y="304"/>
      <point x="529" y="194" type="curve" smooth="yes"/>
      <point x="529" y="80"/>
      <point x="453" y="4"/>
      <point x="331" y="4" type="curve" smooth="yes"/>
      <point x="216" y="4"/>
      <point x="137" y="86"/>
      <point x="137" y="194" type="curve" smooth="yes"/>
      <point x="137" y="284"/>
      <point x="216" y="381"/>
      <point x="336" y="381" type="curve" smooth="yes"/>
    </contour>
  </outline>
</glyph>
<glyph name="udieresis.titl.sc" format="2">
  <advance width="605"/>
  <outline>
    <contour>
      <point x="383" y="522"/>
      <point x="392" y="531"/>
      <point x="392" y="544" type="curve" smooth="yes"/>
      <point x="392" y="557"/>
      <point x="383" y="566"/>
      <point x="370" y="566" type="curve" smooth="yes"/>
      <point x="357" y="566"/>
      <point x="348" y="557"/>
      <point x="348" y="544" type="curve" smooth="yes"/>
      <point x="348" y="531"/>
      <point x="357" y="522"/>
      <point x="370" y="522" type="curve" smooth="yes"/>
    </contour>
    <contour>
      <point x="254" y="522"/>
      <point x="263" y="531"/>
      <point x="263" y="544" type="curve" smooth="yes"/>
      <point x="263" y="557"/>
      <point x="254" y="566"/>
      <point x="241" y="566" type="curve" smooth="yes"/>
      <point x="228" y="566"/>
      <point x="219" y="557"/>
      <point x="219" y="544" type="curve" smooth="yes"/>
      <point x="219" y="531"/>
      <point x="228" y="522"/>
      <point x="241" y="522" type="curve" smooth="yes"/>
    </contour>
    <contour>
      <point x="509" y="560" type="line"/>
      <point x="509" y="200" type="line" smooth="yes"/>
      <point x="509" y="76"/>
      <point x="433" y="6"/>
      <point x="306" y="6" type="curve" smooth="yes"/>
      <point x="178" y="6"/>
      <point x="102" y="76"/>
      <point x="102" y="200" type="curve" smooth="yes"/>
      <point x="102" y="560" type="line"/>
      <point x="86" y="560" type="line"/>
      <point x="86" y="200" type="line" smooth="yes"/>
      <point x="86" y="66"/>
      <point x="168" y="-8"/>
      <point x="306" y="-8" type="curve" smooth="yes"/>
      <point x="443" y="-8"/>
      <point x="525" y="66"/>
      <point x="525" y="200" type="curve" smooth="yes"/>
      <point x="525" y="560" type="line"/>
    </contour>
  </outline>
</glyph>
<glyph name="uni0162.sc" format="2">
  <advance width="486"/>
  <anchor x="243" y="-210" name="bottom"/>
  <anchor x="235" y="-197" name="bottomC"/>
  <anchor x="276" y="-197" name="ogonek"/>
  <anchor x="243" y="560" name="top"/>
  <anchor x="242" y="312" name="center"/>
  <outline>
    <contour>
      <point x="292" y="-36"/>
      <point x="319" y="-68"/>
      <point x="319" y="-117" type="curve" smooth="yes"/>
      <point x="319" y="-160"/>
      <point x="290" y="-189"/>
      <point x="245" y="-189" type="curve" smooth="yes"/>
      <point x="204" y="-189"/>
      <point x="182" y="-174"/>
      <point x="161" y="-148" type="curve"/>
      <point x="152" y="-158" type="line"/>
      <point x="172" y="-184"/>
      <point x="198" y="-202"/>
      <point x="245" y="-202" type="curve" smooth="yes"/>
      <point x="299" y="-202"/>
      <point x="335" y="-168"/>
      <point x="335" y="-117" type="curve" smooth="yes"/>
      <point x="335" y="-65"/>
      <point x="307" y="-32"/>
      <point x="250" y="3" type="curve"/>
      <point x="235" y="0" type="line"/>
    </contour>
    <component base="t.sc"/>
  </outline>
</glyph>
<glyph name="uni0163.swsh" format="2">
  <advance width="329"/>
  <anchor x="119" y="281" name="center"/>
  <anchor x="220" y="0" name="bottom"/>
  <anchor x="119" y="730" name="top"/>
  <anchor x="199" y="0" name="bottomC"/>
  <anchor x="247" y="767" name="topright"/>
  <anchor x="302" y="9" name="ogonek"/>
  <outline>
    <contour>
      <point x="268" y="-45"/>
      <point x="290" y="-77"/>
      <point x="290" y="-119" type="curve" smooth="yes"/>
      <point x="290" y="-161"/>
      <point x="262" y="-189"/>
      <point x="219" y="-189" type="curve" smooth="yes"/>
      <point x="179" y="-189"/>
      <point x="156" y="-178"/>
      <point x="131" y="-148" type="curve"/>
      <point x="123" y="-160" type="line"/>
      <point x="147" y="-190"/>
      <point x="173" y="-202"/>
      <point x="219" y="-202" type="curve" smooth="yes"/>
      <point x="271" y="-202"/>
      <point x="305" y="-168"/>
      <point x="305" y="-118" type="curve" smooth="yes"/>
      <point x="305" y="-71"/>
      <point x="277" y="-36"/>
      <point x="195" y="8" type="curve"/>
      <point x="178" y="8" type="line"/>
    </contour>
    <component base="t.swsh"/>
  </outline>
</glyph>
<glyph name="x.sc" format="2">
  <advance width="467"/>
  <anchor x="234" y="0" name="bottom"/>
  <anchor x="453" y="0" name="bottomC"/>
  <anchor x="453" y="0" name="ogonek"/>
  <anchor x="234" y="560" name="top"/>
  <outline>
    <contour>
      <point x="34" y="0" type="line"/>
      <point x="240" y="282" type="line"/>
      <point x="242" y="285" type="line"/>
      <point x="443" y="560" type="line"/>
      <point x="422" y="560" type="line"/>
      <point x="231" y="298" type="line"/>
      <point x="228" y="294" type="line"/>
      <point x="13" y="0" type="line"/>
    </contour>
    <contour>
      <point x="453" y="0" type="line"/>
      <point x="242" y="294" type="line"/>
      <point x="239" y="298" type="line"/>
      <point x="51" y="560" type="line"/>
      <point x="31" y="560" type="line"/>
      <point x="229" y="284" type="line"/>
      <point x="231" y="281" type="line"/>
      <point x="433" y="0" type="line"/>
    </contour>
  </outline>
</glyph>
<glyph name="zero.tf" format="2">
  <advance width="604"/>
  <outline>
    <contour>
      <point x="453" y="-10"/>
      <point x="537" y="111"/>
      <point x="537" y="330" type="curve" smooth="yes"/>
      <point x="537" y="549"/>
      <point x="453" y="670"/>
      <point x="302" y="670" type="curve" smooth="yes"/>
      <point x="151" y="670"/>
      <point x="67" y="549"/>
      <point x="67" y="330" type="curve" smooth="yes"/>
      <point x="67" y="111"/>
      <point x="151" y="-10"/>
      <point x="302" y="-10" type="curve" smooth="yes"/>
    </contour>
    <contour>
      <point x="161" y="4"/>
      <point x="83" y="119"/>
      <point x="83" y="330" type="curve" smooth="yes"/>
      <point x="83" y="541"/>
      <point x="161" y="656"/>
      <point x="302" y="656" type="curve" smooth="yes"/>
      <point x="443" y="656"/>
      <point x="521" y="541"/>
      <point x="521" y="330" type="curve" smooth="yes"/>
      <point x="521" y="119"/>
      <point x="443" y="4"/>
      <point x="302" y="4" type="curve" smooth="yes"/>
    </contour>
  </outline>
</glyph>
<glyph name="zero.zero" format="2">
  <advance width="590"/>
  <outline>
    <contour>
      <point x="427" y="618" type="line"/>
      <point x="413" y="628" type="line"/>
      <point x="164" y="41" type="line"/>
      <point x="177" y="31" type="line"/>
    </contour>
    <component base="zero"/>
  </outline>
</glyph>
